<?xml version="1.0" encoding="utf-8"?>
<!-- Generator: Adobe Illustrator 16.0.0, SVG Export Plug-In . SVG Version: 6.00 Build 0)  -->
<!DOCTYPE svg PUBLIC "-//W3C//DTD SVG 1.1//EN" "http://www.w3.org/Graphics/SVG/1.1/DTD/svg11.dtd">
<svg version="1.1" id="Layer_1" xmlns="http://www.w3.org/2000/svg" xmlns:xlink="http://www.w3.org/1999/xlink" x="0px" y="0px"
	 width="502px" height="186px" viewBox="0 0 502 186" style="enable-background:new 0 0 502 186;" xml:space="preserve">
<g>
	<defs>
		<rect id="SVGID_1_" x="-180" y="-150.276" width="841.89" height="595.276"/>
	</defs>
	<clipPath id="SVGID_2_">
		<use xlink:href="#SVGID_1_"  style="overflow:visible;"/>
	</clipPath>
	<path style="clip-path:url(#SVGID_2_);fill:#22559D;" d="M70.472,9.917c-2.152,16.268-6.003,46.106-6.003,46.106h33.025
		l5.925-46.079h34.704L121.935,133.98H87.337l6.209-47.367H60.357c-2.857,23.386-3.597,29.205-5.819,47.367H17.809L33.405,9.944
		C50.2,9.944,55.913,9.944,70.472,9.917"/>
	<path style="clip-path:url(#SVGID_2_);fill:none;stroke:#FFFFFF;stroke-width:1.106;stroke-miterlimit:3.864;" d="M70.472,9.917
		c-2.152,16.268-6.003,46.106-6.003,46.106h33.025l5.925-46.079h34.704L121.935,133.98H87.337l6.209-47.367H60.357
		c-2.857,23.386-3.597,29.205-5.819,47.367H17.809L33.405,9.944C50.2,9.944,55.913,9.944,70.472,9.917z"/>
	<path style="clip-path:url(#SVGID_2_);fill:#22559D;" d="M297.117,133.98H265.06c1.614-13.611,3.203-25.145,4.927-39.17
		c-6.485,13.495-12.97,26.568-19.21,39.17h-25.71c-3.781-16.785-5.792-25.78-8.649-39.96l-5,39.96h-30.788l10.184-79.671h49.318
		c2.103,9.344,3.055,13.364,4.895,22.27l11.385-22.239c23.701,0,29.626,0,51.104,0.014L297.117,133.98z"/>
	<path style="clip-path:url(#SVGID_2_);fill:none;stroke:#FFFFFF;stroke-width:1.106;stroke-miterlimit:3.864;" d="M297.117,133.98
		H265.06c1.614-13.611,3.203-25.145,4.927-39.17c-6.485,13.495-12.97,26.568-19.21,39.17h-25.71
		c-3.781-16.785-5.792-25.78-8.649-39.96l-5,39.96h-30.788l10.184-79.671h49.318c2.103,9.344,3.055,13.364,4.895,22.27
		l11.385-22.239c23.701,0,29.626,0,51.104,0.014L297.117,133.98z"/>
</g>
<polygon style="fill:#22559D;" points="168.398,133.98 135.071,133.98 145.317,54.31 178.916,54.31 "/>
<polygon style="fill:none;stroke:#FFFFFF;stroke-width:1.106;stroke-miterlimit:3.864;" points="168.398,133.98 135.071,133.98 
	145.317,54.31 178.916,54.31 "/>
<g>
	<defs>
		<rect id="SVGID_3_" x="-180" y="-150.276" width="841.89" height="595.276"/>
	</defs>
	<clipPath id="SVGID_4_">
		<use xlink:href="#SVGID_3_"  style="overflow:visible;"/>
	</clipPath>
	<path style="clip-path:url(#SVGID_4_);fill:#C30B28;" d="M334.436,52.263c5.445-2.404,11.469-3.739,17.805-3.739
		c6.337,0,12.359,1.335,17.806,3.739H334.436z"/>
	<path style="clip-path:url(#SVGID_4_);fill:none;stroke:#FFFFFF;stroke-width:0.521;stroke-miterlimit:3.864;" d="M334.436,52.263
		c5.445-2.404,11.469-3.739,17.805-3.739c6.337,0,12.359,1.335,17.806,3.739H334.436z"/>
	<path style="clip-path:url(#SVGID_4_);fill:#C30B28;" d="M315.836,66.015c1.634-2.299,3.909-4.77,5.944-6.714h61.191
		c2.034,1.974,3.879,4.378,5.504,6.71L315.836,66.015z"/>
	<path style="clip-path:url(#SVGID_4_);fill:none;stroke:#FFFFFF;stroke-width:0.521;stroke-miterlimit:3.864;" d="M315.836,66.015
		c1.634-2.299,3.909-4.77,5.944-6.714h61.191c2.034,1.974,3.879,4.378,5.504,6.71L315.836,66.015z"/>
	<path style="clip-path:url(#SVGID_4_);fill:#C30B28;" d="M309.269,81.215c0.715-3.087,2.114-6.144,3.439-8.946l79.421,0.033
		c1.344,2.83,2.396,5.826,3.115,8.948L309.269,81.215z"/>
	<path style="clip-path:url(#SVGID_4_);fill:none;stroke:#FFFFFF;stroke-width:0.521;stroke-miterlimit:3.864;" d="M309.269,81.215
		c0.715-3.087,2.114-6.144,3.439-8.946l79.421,0.033c1.344,2.83,2.396,5.826,3.115,8.948L309.269,81.215z"/>
	<path style="clip-path:url(#SVGID_4_);fill:#C30B28;" d="M308.563,97.404c-0.284-2.024-0.432-4.093-0.432-6.197
		c0-1.502,0.076-2.988,0.222-4.452h87.764c0.169,1.566,0.256,2.842,0.256,4.452c0,2.095-0.146,4.157-0.429,6.173L308.563,97.404z"/>
	<path style="clip-path:url(#SVGID_4_);fill:none;stroke:#FFFFFF;stroke-width:0.521;stroke-miterlimit:3.864;" d="M308.563,97.404
		c-0.284-2.024-0.432-4.093-0.432-6.197c0-1.502,0.076-2.988,0.222-4.452h87.764c0.169,1.566,0.256,2.842,0.256,4.452
		c0,2.095-0.146,4.157-0.429,6.173L308.563,97.404z"/>
	<path style="clip-path:url(#SVGID_4_);fill:#C30B28;" d="M315.02,114.69c-2.587-4.054-4.518-8.342-5.672-13.154h85.817
		c-1.135,4.753-3.04,9.171-5.574,13.187L315.02,114.69z"/>
	<path style="clip-path:url(#SVGID_4_);fill:none;stroke:#FFFFFF;stroke-width:0.521;stroke-miterlimit:3.864;" d="M315.02,114.69
		c-2.587-4.054-4.518-8.342-5.672-13.154h85.817c-1.135,4.753-3.04,9.171-5.574,13.187L315.02,114.69z"/>
	<path style="clip-path:url(#SVGID_4_);fill:#C30B28;" d="M387.306,119.469c-8.062,10.541-20.771,17.519-35.065,17.519
		c-14.399,0-26.254-6.86-34.306-17.532L387.306,119.469z"/>
	<path style="clip-path:url(#SVGID_4_);fill:none;stroke:#FFFFFF;stroke-width:0.521;stroke-miterlimit:3.864;" d="M387.306,119.469
		c-8.062,10.541-20.771,17.519-35.065,17.519c-14.399,0-26.254-6.86-34.306-17.532L387.306,119.469z"/>
	<path style="clip-path:url(#SVGID_4_);fill:#22559D;" d="M452.761,60.428c17.749,5.075,28.299,20.469,28.299,38.128
		c0,21.893-17.748,39.641-39.642,39.641c-1.481,0-3.425,0.488-4.863,0.33c-5.08,0.469-10.167-0.234-15.444-0.892
		c-8.564-1.224-15.881-4.162-23.345-7.955c1.905-14.496,2.329-18.411,3.915-30.685c9.828,6.207,24.172,13.349,33.979,11.688
		c4.351-0.396,11.626-4.904,11.622-12.068c0-4.686-3.555-8.655-7.035-10.79c-2.078-1.305-15.889-7.652-27.119-15.55
		c-9.358-6.583-11.682-16.293-11.682-26.913c0-20.345,18.461-35.418,36.84-36.839c10.633-0.88,23.1,0.647,34.704,6.618
		c-1.582,10.757-2.056,13.288-3.638,26.733c-8.316-5.479-12.896-9.784-22.982-8.879c-6.445,0-11.672,5.226-11.672,11.672
		c0,3.632,1.66,6.877,4.262,9.019C443.344,56.541,448.086,58.498,452.761,60.428"/>
	<path style="clip-path:url(#SVGID_4_);fill:none;stroke:#FFFFFF;stroke-width:1.106;stroke-miterlimit:3.864;" d="M452.761,60.428
		c17.749,5.075,28.299,20.469,28.299,38.128c0,21.893-17.748,39.641-39.642,39.641c-1.481,0-3.425,0.488-4.863,0.33
		c-5.08,0.469-10.167-0.234-15.444-0.892c-8.564-1.224-15.881-4.162-23.345-7.955c1.905-14.496,2.329-18.411,3.915-30.685
		c9.828,6.207,24.172,13.349,33.979,11.688c4.351-0.396,11.626-4.904,11.622-12.068c0-4.686-3.555-8.655-7.035-10.79
		c-2.078-1.305-15.889-7.652-27.119-15.55c-9.358-6.583-11.682-16.293-11.682-26.913c0-20.345,18.461-35.418,36.84-36.839
		c10.633-0.88,23.1,0.647,34.704,6.618c-1.582,10.757-2.056,13.288-3.638,26.733c-8.316-5.479-12.896-9.784-22.982-8.879
		c-6.445,0-11.672,5.226-11.672,11.672c0,3.632,1.66,6.877,4.262,9.019C443.344,56.541,448.086,58.498,452.761,60.428z"/>
	<path style="clip-path:url(#SVGID_4_);fill:#22559D;" d="M7.64,163.087c0-8.811,7.593-15.954,16.96-15.954h452.627
		c9.367,0,16.961,7.144,16.961,15.954c0,8.813-7.594,15.954-16.961,15.954H24.6C15.233,179.041,7.64,171.9,7.64,163.087"/>
	<path style="clip-path:url(#SVGID_4_);fill:none;stroke:#FFFFFF;stroke-width:1.106;stroke-miterlimit:3.864;" d="M7.64,163.087
		c0-8.811,7.593-15.954,16.96-15.954h452.627c9.367,0,16.961,7.144,16.961,15.954c0,8.813-7.594,15.954-16.961,15.954H24.6
		C15.233,179.041,7.64,171.9,7.64,163.087z"/>
	<path style="clip-path:url(#SVGID_4_);fill:#22559D;" d="M482.204,29.988h2.149c1.153,0,2.281,0.408,2.281,1.805
		c0,1.603-0.892,1.924-2.281,1.924h-2.149V29.988z M480.395,40.737h1.81v-5.449h1.521l3.094,5.449h1.914l-3.146-5.449
		c1.73,0,2.857-1.426,2.857-3.408c0-2.33-1.258-3.466-3.801-3.466h-4.248V40.737z M476.357,34.589c0-5.039,3.277-8.943,7.682-8.943
		c4.353,0,7.629,3.904,7.629,8.943c0,5.041-3.276,8.944-7.629,8.944C479.635,43.533,476.357,39.63,476.357,34.589 M474.548,34.589
		c0,5.798,4.247,10.517,9.466,10.517c5.217,0,9.464-4.719,9.464-10.517c0-5.796-4.247-10.516-9.464-10.516
		C478.795,24.073,474.548,28.793,474.548,34.589"/>
	<path style="clip-path:url(#SVGID_4_);fill:#FFFFFF;" d="M465.506,167.285h-5.653l-0.363,2.782h5.654L465.506,167.285z
		 M461.439,154.375l-0.811,11.172h4.557l2.103-11.172H461.439z M450.803,170.146c1.056-0.165,2.043-0.409,2.968-0.732l0.4-3.046
		h-0.561c-0.669,0.345-1.472,0.657-2.409,0.938s-1.958,0.422-3.061,0.422c-1.581,0-2.797-0.232-3.646-0.696s-1.345-1.106-1.49-1.929
		c-0.008-0.042-0.015-0.082-0.021-0.121c-0.006-0.038-0.015-0.079-0.021-0.121h11.698c0.126-0.45,0.212-0.904,0.257-1.361
		c0.046-0.457,0.027-0.926-0.058-1.404c-0.245-1.394-1.027-2.447-2.343-3.161c-1.316-0.714-3.146-1.071-5.49-1.071
		c-1.541,0-2.921,0.193-4.142,0.58s-2.201,0.91-2.943,1.571c-0.777,0.683-1.323,1.474-1.642,2.374
		c-0.316,0.899-0.381,1.888-0.19,2.964c0.276,1.575,1.223,2.809,2.838,3.702c1.614,0.894,3.761,1.34,6.441,1.34
		C448.611,170.395,449.749,170.312,450.803,170.146 M443.062,162.638c0.231-0.755,0.664-1.344,1.296-1.769
		c0.633-0.423,1.469-0.635,2.508-0.635c0.862,0,1.548,0.148,2.059,0.445c0.512,0.296,0.816,0.723,0.914,1.281
		c0.021,0.111,0.032,0.222,0.037,0.327c0.005,0.106,0.004,0.223-0.001,0.35H443.062z M432.291,170.211
		c0.62-0.061,1.204-0.144,1.755-0.248l0.336-2.54h-0.42c-0.234,0.091-0.559,0.174-0.97,0.248c-0.411,0.072-0.747,0.109-1.008,0.109
		c-0.652,0-1.15-0.082-1.491-0.247s-0.549-0.459-0.623-0.88c-0.038-0.211-0.04-0.465-0.008-0.764s0.069-0.596,0.112-0.892
		l0.562-4.269h4.712l0.326-2.498h-4.716l0.435-3.383h-5.055l-0.44,3.383h-2.074l-0.331,2.498h2.081l-0.729,5.607
		c-0.025,0.281-0.042,0.526-0.051,0.737c-0.01,0.211,0.005,0.43,0.045,0.654c0.15,0.85,0.636,1.491,1.458,1.923
		c0.823,0.433,2.106,0.648,3.851,0.648C430.924,170.3,431.672,170.27,432.291,170.211 M417.962,169.252
		c1.471-0.764,2.089-1.805,1.856-3.125c-0.156-0.887-0.715-1.574-1.675-2.066c-0.961-0.492-2.46-0.899-4.498-1.223
		c-1.097-0.176-1.907-0.347-2.432-0.512c-0.523-0.165-0.813-0.401-0.868-0.711c-0.07-0.4,0.164-0.697,0.705-0.891
		c0.54-0.193,1.348-0.29,2.423-0.29c0.989,0,1.976,0.121,2.958,0.364c0.981,0.242,1.838,0.557,2.569,0.942h0.435l0.396-2.993
		c-0.586-0.203-1.482-0.395-2.689-0.573c-1.207-0.181-2.398-0.27-3.574-0.27c-2.706,0-4.783,0.384-6.234,1.154
		c-1.45,0.769-2.057,1.822-1.822,3.156c0.14,0.787,0.649,1.443,1.532,1.971c0.882,0.527,2.426,0.977,4.632,1.349
		c1.301,0.219,2.164,0.401,2.592,0.549s0.667,0.361,0.717,0.643c0.063,0.366-0.169,0.646-0.699,0.844
		c-0.531,0.196-1.361,0.295-2.492,0.295c-0.756,0-1.472-0.058-2.146-0.174c-0.675-0.116-1.274-0.255-1.797-0.417
		c-0.61-0.175-1.087-0.344-1.428-0.505c-0.342-0.162-0.627-0.31-0.855-0.443h-0.463l-0.416,3.12
		c0.716,0.253,1.721,0.475,3.013,0.664c1.293,0.189,2.612,0.284,3.955,0.284C414.389,170.395,416.491,170.014,417.962,169.252
		 M396.33,153.669l-0.374,2.877h5.346l0.374-2.877H396.33z M395.868,158.231l-1.558,11.836h5.07l1.56-11.836H395.868z
		 M382.752,167.254c-0.604,0.273-1.332,0.41-2.181,0.41c-0.42,0-0.833-0.025-1.239-0.078s-0.767-0.129-1.083-0.227l0.777-5.955
		c0.494-0.211,0.967-0.381,1.42-0.511c0.452-0.13,0.925-0.195,1.419-0.195c0.96,0,1.657,0.17,2.09,0.512
		c0.434,0.341,0.705,0.831,0.818,1.47c0.123,0.696,0.129,1.341,0.019,1.934c-0.109,0.594-0.326,1.112-0.649,1.556
		C383.82,166.618,383.357,166.979,382.752,167.254 M388.168,158.996c-0.978-0.728-2.26-1.091-3.846-1.091
		c-0.98,0-1.849,0.138-2.608,0.411c-0.759,0.274-1.569,0.657-2.435,1.149l0.161-1.234h-5.07l-2.11,16.179h5.069l0.645-4.933
		c0.613,0.26,1.286,0.462,2.016,0.606c0.729,0.144,1.514,0.216,2.353,0.216c1.325,0,2.482-0.219,3.474-0.653
		c0.991-0.436,1.842-1.044,2.553-1.824c0.681-0.736,1.167-1.617,1.458-2.64s0.34-2.078,0.148-3.167
		C389.747,160.729,389.146,159.724,388.168,158.996 M363.629,153.669l-0.374,2.877h5.346l0.375-2.877H363.629z M363.166,158.231
		l-1.557,11.836h5.07l1.559-11.836H363.166z M352.425,163.386l6.377-5.154h-5.805l-6.123,5.229l1.271-9.791h-5.069l-2.127,16.398
		h5.069l0.5-3.742l1.957-1.481l4.023,5.224h5.313L352.425,163.386z M334.935,169.252c1.47-0.764,2.089-1.805,1.855-3.125
		c-0.156-0.887-0.714-1.574-1.675-2.066c-0.96-0.492-2.459-0.899-4.497-1.223c-1.096-0.176-1.907-0.347-2.431-0.512
		c-0.525-0.165-0.814-0.401-0.868-0.711c-0.071-0.4,0.164-0.697,0.704-0.891c0.541-0.193,1.348-0.29,2.423-0.29
		c0.99,0,1.976,0.121,2.958,0.364c0.98,0.242,1.838,0.557,2.569,0.942h0.435l0.396-2.993c-0.587-0.203-1.482-0.395-2.689-0.573
		c-1.207-0.181-2.399-0.27-3.574-0.27c-2.706,0-4.784,0.384-6.233,1.154c-1.45,0.769-2.059,1.822-1.822,3.156
		c0.138,0.787,0.648,1.443,1.531,1.971s2.427,0.977,4.633,1.349c1.3,0.219,2.163,0.401,2.591,0.549s0.667,0.361,0.716,0.643
		c0.065,0.366-0.168,0.646-0.699,0.844c-0.529,0.196-1.36,0.295-2.49,0.295c-0.758,0-1.473-0.058-2.146-0.174
		c-0.675-0.116-1.274-0.255-1.797-0.417c-0.611-0.175-1.086-0.344-1.428-0.505c-0.341-0.162-0.626-0.31-0.856-0.443h-0.462
		l-0.417,3.12c0.717,0.253,1.721,0.475,3.014,0.664s2.611,0.284,3.955,0.284C331.362,170.395,333.464,170.014,334.935,169.252
		 M314.386,170.146c1.055-0.165,2.044-0.409,2.967-0.732l0.4-3.046h-0.561c-0.669,0.345-1.473,0.657-2.409,0.938
		c-0.938,0.281-1.958,0.422-3.061,0.422c-1.581,0-2.797-0.232-3.645-0.696c-0.849-0.464-1.346-1.106-1.491-1.929
		c-0.007-0.042-0.014-0.082-0.021-0.121c-0.007-0.038-0.015-0.079-0.022-0.121h11.698c0.126-0.45,0.212-0.904,0.258-1.361
		c0.045-0.457,0.026-0.926-0.058-1.404c-0.246-1.394-1.027-2.447-2.344-3.161s-3.146-1.071-5.49-1.071
		c-1.54,0-2.921,0.193-4.142,0.58c-1.22,0.387-2.201,0.91-2.943,1.571c-0.776,0.683-1.323,1.474-1.642,2.374
		c-0.316,0.899-0.381,1.888-0.19,2.964c0.277,1.575,1.224,2.809,2.838,3.702s3.761,1.34,6.44,1.34
		C312.193,170.395,313.332,170.312,314.386,170.146 M306.645,162.638c0.231-0.755,0.664-1.344,1.297-1.769
		c0.632-0.423,1.468-0.635,2.507-0.635c0.862,0,1.548,0.148,2.059,0.445c0.512,0.296,0.816,0.723,0.915,1.281
		c0.021,0.111,0.032,0.222,0.036,0.327c0.005,0.106,0.005,0.223-0.001,0.35H306.645z M292.863,163.386l6.377-5.154h-5.805
		l-6.122,5.229l1.269-9.791h-5.068l-2.128,16.398h5.069l0.5-3.742l1.957-1.481l4.024,5.224h5.312L292.863,163.386z M263.537,158.675
		c-0.875-0.514-2.018-0.77-3.429-0.77c-1.028,0-1.943,0.145-2.747,0.433s-1.68,0.688-2.626,1.2l0.185-1.307h-5.069l-1.544,11.836
		h5.069l1.08-8.389c0.608-0.26,1.161-0.455,1.662-0.585c0.499-0.13,0.95-0.195,1.352-0.195c0.821,0,1.405,0.105,1.75,0.316
		c0.346,0.211,0.559,0.545,0.64,1.001c0.047,0.268,0.06,0.556,0.041,0.864c-0.021,0.31-0.058,0.682-0.111,1.117l-0.751,5.87h5.102
		l0.987-7.704c0.036-0.267,0.053-0.522,0.046-0.769s-0.027-0.476-0.064-0.686C264.937,159.933,264.412,159.188,263.537,158.675
		 M240.18,170.146c1.055-0.165,2.043-0.409,2.967-0.732l0.4-3.046h-0.561c-0.669,0.345-1.472,0.657-2.409,0.938
		c-0.937,0.281-1.958,0.422-3.061,0.422c-1.581,0-2.796-0.232-3.645-0.696c-0.849-0.464-1.345-1.106-1.49-1.929
		c-0.008-0.042-0.015-0.082-0.022-0.121c-0.006-0.038-0.014-0.079-0.021-0.121h11.698c0.126-0.45,0.212-0.904,0.257-1.361
		c0.046-0.457,0.027-0.926-0.058-1.404c-0.245-1.394-1.027-2.447-2.343-3.161c-1.316-0.714-3.146-1.071-5.49-1.071
		c-1.541,0-2.921,0.193-4.141,0.58c-1.221,0.387-2.202,0.91-2.944,1.571c-0.777,0.683-1.323,1.474-1.641,2.374
		c-0.317,0.899-0.381,1.888-0.191,2.964c0.277,1.575,1.223,2.809,2.838,3.702c1.614,0.894,3.761,1.34,6.441,1.34
		C237.988,170.395,239.126,170.312,240.18,170.146 M232.439,162.638c0.232-0.755,0.664-1.344,1.296-1.769
		c0.633-0.423,1.469-0.635,2.508-0.635c0.862,0,1.548,0.148,2.059,0.445c0.511,0.296,0.816,0.723,0.914,1.281
		c0.02,0.111,0.032,0.222,0.037,0.327c0.005,0.106,0.004,0.223-0.001,0.35H232.439z M221.308,158.675
		c-0.817-0.514-1.916-0.77-3.295-0.77c-0.923,0-1.847,0.172-2.775,0.517c-0.927,0.345-1.954,0.857-3.083,1.539
		c-0.398-0.676-0.982-1.187-1.751-1.534s-1.67-0.521-2.704-0.521c-0.959,0-1.825,0.145-2.599,0.433
		c-0.773,0.288-1.627,0.688-2.561,1.2l0.173-1.307h-5.072l-1.558,11.836h5.071l1.091-8.389c0.554-0.239,1.057-0.429,1.508-0.569
		c0.452-0.141,0.878-0.211,1.279-0.211c0.774,0,1.32,0.097,1.639,0.29c0.319,0.193,0.516,0.504,0.591,0.933
		c0.038,0.21,0.04,0.517,0.007,0.917c-0.032,0.4-0.07,0.773-0.112,1.117l-0.786,5.912h5.114l1.09-8.389
		c0.604-0.26,1.124-0.455,1.56-0.585s0.835-0.195,1.197-0.195c0.76,0,1.306,0.095,1.636,0.285c0.33,0.188,0.531,0.488,0.603,0.895
		c0.041,0.229,0.044,0.531,0.012,0.905c-0.033,0.373-0.075,0.764-0.125,1.172l-0.79,5.912h5.114l1.015-7.704
		c0.035-0.273,0.052-0.538,0.049-0.79c-0.002-0.253-0.023-0.488-0.061-0.707C222.618,159.919,222.125,159.188,221.308,158.675
		 M184.692,167.48c-0.516,0.249-1.077,0.374-1.684,0.374c-0.83,0-1.514-0.174-2.051-0.522c-0.537-0.347-0.877-0.925-1.019-1.732
		c-0.122-0.689-0.13-1.36-0.026-2.013c0.104-0.654,0.308-1.202,0.612-1.646c0.327-0.477,0.735-0.846,1.226-1.105
		c0.49-0.261,1.09-0.391,1.799-0.391c0.914,0,1.616,0.195,2.105,0.585c0.488,0.391,0.796,0.947,0.924,1.67
		c0.147,0.837,0.163,1.546,0.046,2.129c-0.116,0.584-0.346,1.121-0.688,1.613C185.622,166.885,185.208,167.231,184.692,167.48
		 M189.325,159.112c-1.393-0.833-3.264-1.249-5.615-1.249c-1.605,0-3.017,0.205-4.237,0.616c-1.22,0.411-2.21,0.972-2.971,1.681
		c-0.787,0.725-1.33,1.561-1.629,2.51c-0.299,0.947-0.356,1.948-0.17,3.003c0.263,1.489,1.093,2.655,2.492,3.5
		c1.399,0.843,3.269,1.264,5.611,1.264c1.642,0,3.044-0.195,4.207-0.585s2.147-0.946,2.952-1.67
		c0.773-0.696,1.321-1.528,1.645-2.498c0.323-0.97,0.387-2.009,0.191-3.12C191.543,161.096,190.717,159.944,189.325,159.112
		 M165.306,158.231l-1.096,8.39c-0.581,0.254-1.127,0.446-1.64,0.58c-0.513,0.134-0.975,0.2-1.385,0.2
		c-0.83,0-1.413-0.104-1.748-0.311s-0.543-0.543-0.625-1.007c-0.039-0.226-0.053-0.499-0.04-0.822
		c0.013-0.323,0.049-0.709,0.11-1.159l0.766-5.871h-5.084l-1.007,7.705c-0.036,0.274-0.052,0.525-0.049,0.753
		c0.003,0.229,0.028,0.477,0.075,0.744c0.172,0.976,0.701,1.714,1.586,2.213c0.885,0.499,2.018,0.748,3.398,0.748
		c0.438,0,0.876-0.03,1.313-0.089c0.437-0.061,0.911-0.174,1.422-0.343c0.407-0.126,0.832-0.297,1.274-0.512
		c0.443-0.214,0.894-0.443,1.354-0.69l-0.171,1.307h5.071l1.546-11.836H165.306z M143.583,170.036
		c1.231-0.211,2.306-0.545,3.224-1.001c0.876-0.429,1.523-0.987,1.943-1.676c0.42-0.688,0.55-1.486,0.39-2.393
		c-0.191-1.082-0.841-1.939-1.951-2.571c-1.11-0.633-2.872-1.184-5.287-1.655c-0.899-0.176-1.685-0.346-2.358-0.511
		c-0.673-0.165-1.171-0.318-1.494-0.459c-0.372-0.154-0.629-0.312-0.769-0.474c-0.141-0.162-0.233-0.365-0.276-0.611
		c-0.094-0.531,0.211-0.946,0.914-1.247c0.702-0.3,1.744-0.45,3.125-0.45c1.409,0,2.738,0.169,3.987,0.508
		c1.249,0.34,2.282,0.761,3.098,1.263h0.574l0.384-3.615c-1.008-0.323-2.213-0.579-3.613-0.769c-1.4-0.19-2.87-0.285-4.409-0.285
		c-3.2,0-5.639,0.469-7.316,1.406c-1.677,0.938-2.377,2.195-2.1,3.769c0.111,0.626,0.352,1.163,0.726,1.613
		c0.373,0.449,0.874,0.847,1.504,1.19c0.629,0.337,1.368,0.629,2.218,0.875c0.851,0.246,1.803,0.475,2.857,0.686
		c0.958,0.196,1.742,0.369,2.352,0.521c0.61,0.152,1.096,0.304,1.459,0.459c0.364,0.155,0.617,0.312,0.762,0.469
		c0.144,0.158,0.236,0.347,0.274,0.564c0.103,0.583-0.177,1.031-0.84,1.344c-0.664,0.312-1.76,0.469-3.29,0.469
		c-1.493,0-2.92-0.181-4.28-0.543c-1.361-0.361-2.58-0.873-3.657-1.533h-0.588l-0.414,3.763c1.077,0.344,2.334,0.632,3.77,0.864
		c1.435,0.231,3.044,0.348,4.826,0.348C140.933,170.353,142.351,170.247,143.583,170.036 M127.111,161.573h-10.678l-0.388,3.035
		h10.678L127.111,161.573z M106.959,153.669l-0.374,2.877h5.346l0.374-2.877H106.959z M106.497,158.231l-1.558,11.836h5.071
		l1.559-11.836H106.497z M98.406,158.675c-0.818-0.514-1.916-0.77-3.295-0.77c-0.923,0-1.847,0.172-2.775,0.517
		c-0.927,0.345-1.955,0.857-3.083,1.539c-0.398-0.676-0.982-1.187-1.751-1.534c-0.769-0.348-1.67-0.521-2.704-0.521
		c-0.959,0-1.826,0.145-2.599,0.433s-1.627,0.688-2.561,1.2l0.172-1.307h-5.071l-1.558,11.836h5.071l1.09-8.389
		c0.555-0.239,1.058-0.429,1.509-0.569c0.451-0.141,0.877-0.211,1.279-0.211c0.774,0,1.32,0.097,1.639,0.29
		c0.319,0.193,0.516,0.504,0.591,0.933c0.037,0.21,0.04,0.517,0.007,0.917c-0.032,0.4-0.07,0.773-0.112,1.117l-0.786,5.912h5.114
		l1.09-8.389c0.604-0.26,1.123-0.455,1.56-0.585c0.436-0.13,0.835-0.195,1.196-0.195c0.761,0,1.306,0.095,1.637,0.285
		c0.33,0.188,0.531,0.488,0.603,0.895c0.04,0.229,0.044,0.531,0.011,0.905c-0.033,0.373-0.074,0.764-0.124,1.172l-0.79,5.912h5.114
		l1.015-7.704c0.035-0.273,0.052-0.538,0.049-0.79c-0.002-0.253-0.023-0.488-0.061-0.707
		C99.715,159.919,99.223,159.188,98.406,158.675 M63.485,158.231l-1.097,8.39c-0.58,0.254-1.127,0.446-1.64,0.58
		c-0.512,0.134-0.974,0.2-1.384,0.2c-0.83,0-1.413-0.104-1.748-0.311s-0.543-0.543-0.625-1.007c-0.04-0.226-0.053-0.499-0.04-0.822
		c0.012-0.323,0.049-0.709,0.109-1.159l0.767-5.871h-5.085l-1.007,7.705c-0.035,0.274-0.052,0.525-0.049,0.753
		c0.003,0.229,0.028,0.477,0.075,0.744c0.173,0.976,0.701,1.714,1.586,2.213c0.886,0.499,2.019,0.748,3.399,0.748
		c0.438,0,0.875-0.03,1.313-0.089c0.437-0.061,0.911-0.174,1.422-0.343c0.407-0.126,0.831-0.297,1.274-0.512
		c0.442-0.214,0.894-0.443,1.354-0.69l-0.171,1.307h5.07l1.547-11.836H63.485z M47.347,167.032h-9.652l1.645-12.657h-5.399
		l-2.04,15.692h15.044L47.347,167.032z"/>
</g>
</svg>
