<svg xmlns="http://www.w3.org/2000/svg" width="270" height="60.808" viewBox="0 0 270 60.808">
  <g id="logo-vaaka" transform="translate(-64 -31.999)">
    <g id="logo-teksti" transform="translate(140.673 57.595)">
      <path id="Path_1" data-name="Path 1" d="M120.472,457.366l-3.548-8.159,3.238-7.118h-4.014l-2.816,6.542v-6.542h-3.791v15.277h3.791v-7.539l2.994,7.539Zm14.389,0L131.2,442.11h-4.678L122.8,457.366h3.682l.576-2.795h3.237l.577,2.795Zm-5.143-5.565h-2.062l1.042-4.967Zm18.247,5.565V442.089H144.44v6.762l-3.481-6.762h-3.215v15.277H141.2v-7.14l3.569,7.14Zm12.019-4.745c0-4.879-5.211-4.368-5.211-6.452,0-.888.775-1.242,1.55-1.242a5.123,5.123,0,0,1,2.861,1.287l.023-3.548a6.993,6.993,0,0,0-3.415-.888,4.5,4.5,0,0,0-4.722,4.746c0,2.2,1.132,3.437,2.97,4.389a8.168,8.168,0,0,1,.976.51c.642.332,1.242.686,1.242,1.507,0,1.087-.753,1.509-1.73,1.509a6.875,6.875,0,0,1-3.3-1.265v3.615a7.186,7.186,0,0,0,3.725.886,4.979,4.979,0,0,0,5.034-5.055m14.121,4.745-3.659-15.256h-4.678l-3.725,15.256h3.68l.576-2.795h3.238l.576,2.795ZM168.96,451.8H166.9l1.041-4.967Zm15.609,5.565v-3.148h-3.814V442.089h-3.769v15.277Zm10.687,0v-3.148h-3.813V442.089h-3.77v15.277Zm6.873-15.277h-3.768v15.277h3.768Zm12.018,10.532c0-4.879-5.211-4.368-5.211-6.452,0-.888.775-1.242,1.553-1.242a5.114,5.114,0,0,1,2.859,1.287l.024-3.548a7,7,0,0,0-3.415-.888,4.5,4.5,0,0,0-4.724,4.746c0,2.2,1.131,3.437,2.971,4.389a8.158,8.158,0,0,1,.976.51c.642.332,1.241.686,1.241,1.507,0,1.087-.752,1.509-1.728,1.509a6.875,6.875,0,0,1-3.3-1.265v3.615a7.176,7.176,0,0,0,3.725.886,4.978,4.978,0,0,0,5.033-5.055m10.97-7.34v-3.193h-8.825v3.172H218.8v12.106h3.769V445.281Zm10.621,12.085V454.24h-3.969v-3.415h3.57v-2.838h-3.57v-2.771h3.969v-3.127H228v15.277Zm14.677,0-3.658-15.256h-4.679l-3.725,15.256h3.68l.577-2.795h3.238l.577,2.795Zm-5.144-5.565H243.21l1.042-4.967Zm14.855-6.52v-3.193H251.3v3.172h2.505v12.106h3.769V445.281Zm11.458,0v-3.193h-8.826v3.172h2.506v12.106h3.77V445.281ZM282.2,457.366V454.24h-3.969v-3.415H281.8v-2.838h-3.568v-2.771H282.2v-3.127h-7.738v15.277Zm13.9.022c-.112-.266-2.817-6.453-2.817-6.563,0-.067.111-.023.155-.067a1.216,1.216,0,0,0,.376-.2,3.352,3.352,0,0,0,.8-.687,4.985,4.985,0,0,0,1.132-3.259c0-2.816-1.529-4.524-4.391-4.524h-5.875v15.277h3.791v-5.654h.511l2.326,5.676Zm-4.146-10.576c0,1.307-.687,1.8-1.929,1.8h-.754v-3.592h.842c1.287,0,1.842.444,1.842,1.8m10.907-4.724H299.1v15.277h3.769Z" transform="translate(-109.541 -441.778)" fill="#fff"/>
    </g>
    <g id="logo-teatteri" transform="translate(64 31.999)">
      <path id="Path_5" data-name="Path 5" d="M255.524,395.669a1.027,1.027,0,0,0-1.028-1.028h-4.615v-1.255a2.33,2.33,0,0,0-.625-1.04l.006-2.771a1.361,1.361,0,0,0,.243-.747v-.152a1.289,1.289,0,0,0-.252-.742v-7.452l.288-.26a1.031,1.031,0,0,0,.337-.762l0-14.179c0-.125,0-.376,0-.4a1.559,1.559,0,0,0-1.534-1.511,1.48,1.48,0,0,0-1.352.885l-2.421,0a13.483,13.483,0,0,0-2.746-4.972,1.343,1.343,0,0,0,.016-.213,1.4,1.4,0,0,0-1.921-1.3c-1.4-3.234-3.951-5.825-7.876-8.013a1.174,1.174,0,0,0-.41-.924,1.228,1.228,0,0,1-.093-.1,2.6,2.6,0,0,0-.377-.363l-.017-.994a1.244,1.244,0,0,0-1.219-1.292,1.212,1.212,0,0,0-1.068.669h-1.5a1.2,1.2,0,0,0-1.08-.683,1.16,1.16,0,0,0-.422.079v-5.49a1.027,1.027,0,0,0-1.027-1.027h-.811a1.027,1.027,0,0,0-1.027,1.027v5.49a1.155,1.155,0,0,0-.422-.079,1.2,1.2,0,0,0-1.08.683h-1.5a1.213,1.213,0,0,0-1.068-.669,1.244,1.244,0,0,0-1.219,1.292l-.018.994a2.632,2.632,0,0,0-.377.363,1.233,1.233,0,0,1-.093.1,1.176,1.176,0,0,0-.41.924c-3.925,2.187-6.48,4.779-7.875,8.013a1.4,1.4,0,0,0-1.922,1.3,1.265,1.265,0,0,0,.017.213,13.486,13.486,0,0,0-2.747,4.972l-2.42,0a1.481,1.481,0,0,0-1.353-.885,1.559,1.559,0,0,0-1.533,1.511c0,.028,0,.28,0,.4l0,14.179a1.031,1.031,0,0,0,.337.762l.289.26v7.452a1.284,1.284,0,0,0-.252.742v.152a1.36,1.36,0,0,0,.242.747l.006,2.771a2.33,2.33,0,0,0-.624,1.04v1.255h-4.616a1.027,1.027,0,0,0-1.028,1.028v3.741a1.027,1.027,0,0,0,1.028,1.028H254.5a1.027,1.027,0,0,0,1.027-1.028Z" transform="translate(-193.324 -339.63)" fill="#fff"/>
      <path id="Path_6" data-name="Path 6" d="M254.953,396.126H249.3v-2.1a3.2,3.2,0,0,0-.613-.917l.009-3.5a.42.42,0,0,0,.24-.323v-.152a.455.455,0,0,0-.251-.311v-8.339l.613-.567,0-14.179h-.448a.444.444,0,0,0-.047-.886.444.444,0,0,0-.051.886l-4.5,0a12.107,12.107,0,0,0-3.28-5.855.364.364,0,0,0,.3-.358.371.371,0,0,0-.741,0,.364.364,0,0,0,.307.358h-.006a6.088,6.088,0,0,0-.7.787c-.995-3.871-3.546-7.172-8.815-9.932-.215-.129.339-.471.106-.672s-.388-.515-.678-.515c-.047,0-.1,0-.151,0v-1.767a.2.2,0,1,0-.384,0v.448h-3.262v-.448a.2.2,0,1,0-.385,0v.448h-1.375v-7.121h-.606v7.121H223.2v-.448a.2.2,0,1,0-.384,0v.448h-3.263v-.448a.2.2,0,1,0-.384,0v1.766c-.049,0-.1,0-.15,0-.289,0-.453.318-.678.515s.321.543.106.672c-5.27,2.76-7.82,6.061-8.815,9.932a6.085,6.085,0,0,0-.7-.787h-.006a.364.364,0,0,0,.307-.358.371.371,0,0,0-.742,0,.364.364,0,0,0,.3.358,12.107,12.107,0,0,0-3.28,5.855l-4.5,0a.449.449,0,1,0-.1,0h-.447l0,14.179.612.567v8.339a.456.456,0,0,0-.251.311v.152a.42.42,0,0,0,.24.323l.008,3.5a3.2,3.2,0,0,0-.612.917v2.1h-5.656v3.742h60.146Z" transform="translate(-193.781 -340.087)" fill="#000001"/>
      <path id="Path_7" data-name="Path 7" d="M212.386,372.247h4.876l2.089-2.671h-7.968a9.821,9.821,0,0,1,1,2.671m.019,7.785h-6.552v.435H212.4Zm10.849-12.056h-1.887V369.1h1.887Zm-8.531,26.064a.492.492,0,0,1,.492-.492h.063a.493.493,0,0,1,.492.492v2.292h-1.048Zm19.753,0a.493.493,0,0,1,.492-.492h.063a.492.492,0,0,1,.492.492v2.292h-1.048Zm-18.813,5.321a.788.788,0,0,1,.787-.788h.093a.785.785,0,0,1,.7.431h.784v-3.186H216.97v-.748h1.057v-.2a1.181,1.181,0,0,1,1.181-1.182h.4a1.182,1.182,0,0,1,1.182,1.182v.2h2.958v-.2a1.181,1.181,0,0,1,1.18-1.182h.4a1.181,1.181,0,0,1,1.18,1.182v.2h2.958v-.2a1.181,1.181,0,0,1,1.181-1.182h.4a1.181,1.181,0,0,1,1.18,1.182v.2h1.057v.748h-1.057V399h.784a.785.785,0,0,1,.7-.431h.092a.788.788,0,0,1,.788.788v.172a19.046,19.046,0,0,1,2.858.424v-7.266h-4.713a1.373,1.373,0,0,1-1.149.618,1.81,1.81,0,0,1-.584-.1,1.215,1.215,0,0,0,1.21-1.156v-1.106H229.8v1.367h-.1v.011h-2.723a1.373,1.373,0,0,1-1.315.987,1.824,1.824,0,0,1-.584-.1,1.234,1.234,0,0,0,1.221-1.367v-.9H223.72v1.367h-.1v.011h-2.705a1.372,1.372,0,0,1-1.315.987,1.818,1.818,0,0,1-.585-.1,1.233,1.233,0,0,0,1.221-1.367v-.9h-2.2v1.747h-5.236v7.266a19.066,19.066,0,0,1,2.859-.424Zm17.252,0c0-.011,0-.022,0-.033h-15.59c0,.011,0,.022,0,.033v.395h15.584Zm0,1.427h-4.144v.442h4.144Zm-4.145,1.165h4.145v-.427h-4.145Zm4.145-1.9h-4.144v.442h4.144Zm-9.19-30.954h.541v4.516a.124.124,0,0,0,.124.124h.057a.124.124,0,0,0,.124-.124V369.1h1.106v4.516a.123.123,0,0,0,.123.124h.057a.123.123,0,0,0,.123-.124V369.1h.544v-1.122h-2.8Zm8.147,14.586a.2.2,0,0,0,.2-.2v-6.031a.2.2,0,0,0-.2-.2h-.009a.2.2,0,0,0-.2.2v6.031a.2.2,0,0,0,.2.2Zm-12.991-5.747,5.211-6.663v-.512l-5.211,6.663Zm-6.038,2.53h5.031v-.435h-5.031Zm5.54,3.217a.2.2,0,0,0,.2-.2v-6.031a.2.2,0,0,0-.2-.2h-.01a.2.2,0,0,0-.2.2v6.031a.2.2,0,0,0,.2.2Zm8.609,17.105h-3.739v.442h3.739Zm7.486-14.354a.358.358,0,0,1,.358-.358h.328a.358.358,0,0,1,.358.359v4.009H234.48Zm-4.916-4.061a.545.545,0,1,1,.545-.546.546.546,0,0,1-.545.546m-.3,4.129H227.04v-.654a1.047,1.047,0,0,1,1.047-1.047,1.181,1.181,0,0,1,1.182,1.18Zm-2.623-11.3h.593v1.953h-.593Zm.065,4.678h-.832v-.262a.359.359,0,0,1,.359-.358h.115a.359.359,0,0,1,.358.359Zm0,2.633h-.832v-1.894c0-.093-.076-.212-.17-.212s-.171.119-.171.212v1.894h-.828v-1.894c0-.093-.076-.212-.17-.212s-.17.119-.17.212v1.894h-.833v-2.245h3.175Zm-.38,3.992h-2.414v-.52a1.182,1.182,0,0,1,1.182-1.18h.051a1.182,1.182,0,0,1,1.182,1.18Zm-3.123,0h-2.229v-.52a1.181,1.181,0,0,1,1.182-1.18,1.047,1.047,0,0,1,1.048,1.047Zm-2.525-4.129a.545.545,0,1,1,.545-.546.544.544,0,0,1-.545.546m.882-1.21h1.3v1.347H221.55a1.086,1.086,0,0,0,.015-1.347m1.444-5.964h.593v1.953h-.593Zm.888,4.059h.115a.359.359,0,0,1,.358.358v.262h-.833v-.261a.359.359,0,0,1,.36-.359m.523-4.059h.593v1.953h-.593Zm.761,2.77a.358.358,0,0,1,.359.359v1.549h-.83v-1.549a.358.358,0,0,1,.359-.359Zm.055-2.77h.593v1.953h-.593Zm2.146,5.964h1.3a1.1,1.1,0,0,0-.226.665,1.093,1.093,0,0,0,.242.683h-1.316Zm-11.614,9.282h-1.043v-4.009a.358.358,0,0,1,.358-.359h.328a.357.357,0,0,1,.357.358Zm6.977-13.293h-.593V375.2h.593Zm4.76-1.953h.593v1.953H227.5Zm5.394,17.118H237.4v-9.041H232.37v.2a.428.428,0,0,1-.428.429H231.8a.429.429,0,0,1-.429-.429v-.97h-.934a1.088,1.088,0,0,0,.015-1.347h.919v-.494h-4v-.406h4v-.188h-4v-.406h4v-1.2l-4.549-5.819h-.663V373.8a.208.208,0,0,1-.208.208h-.235a.209.209,0,0,1-.208-.208v-1.381a.379.379,0,1,0-.758,0V373.8a.209.209,0,0,1-.209.208H224.3a.208.208,0,0,1-.208-.208v-1.144h-.663l-4.549,5.819v1.2h4v.406h-4v.188h4v.406h-4v.494h.919a1.087,1.087,0,0,0,.014,1.347h-.933v.97a.429.429,0,0,1-.429.429h-.147a.428.428,0,0,1-.428-.429v-.2h-5.034v9.041h4.693v-1.759h.5V387.3h-.919v-.787h.919v-.528a1.182,1.182,0,0,1,1.182-1.18,1.048,1.048,0,0,1,1.048,1.047v.654h-2.089v.485h2.089v3.57h.708v-3.57h2.229v3.57h.709v-3.57h2.414v3.57h.709v-3.57h2.229v3.57h.71v-3.57h2.087V386.5h-2.087v-.654a1.047,1.047,0,0,1,1.046-1.047,1.182,1.182,0,0,1,1.182,1.18v.528h.919v.787h-.919v3.26h.5v.022h.249v1.352a1.361,1.361,0,0,1-.061.385m-6.743-21.043,5.211,6.663v-.512l-5.211-6.663Zm12.709-1.7H230.9l2.089,2.671h4.876a9.837,9.837,0,0,1,1-2.671M237.4,380.032h-5.031v.435H237.4Zm6.224,16.3h-5.014v-.808h.951a1.558,1.558,0,1,1,3.111,0h.952Zm.769-3.633h-6.552v7.123h1.714V398.5h1.331v1.324h.463V398.5h1.331v1.324H244.4ZM210.7,379.153h-3.145v-.867a1.573,1.573,0,0,1,3.145,0Zm1.7-3.36a.593.593,0,0,0-.594-.593h-5.37a.588.588,0,0,0-.588.589v3.822H212.4Zm31.087,25.661a.788.788,0,0,1,.788-.788h.115v-.406h-5.6c1.5.354,3.143.791,4.7,1.21Zm-27.567-33.478H213.91V369.1h2.015Zm4.972,0h-2.015V369.1H220.9Zm2.357,33.977h3.739v-.427h-3.739ZM213.439,369.1v-1.122h-3.053c.21.35.424.732.628,1.122Zm-4.311,4.632a1.157,1.157,0,0,0-.589.875h1.179a1.159,1.159,0,0,0-.59-.875m34.364,28.3a55.76,55.76,0,0,0-8.909-1.83v1.482a38.946,38.946,0,0,1,8.909,1.876Zm-22.015-1.245h-4.145v.442h4.145Zm-4.145,1.165h4.145v-.427h-4.145Zm9.662-1.9h-3.739v.442h3.739ZM220.787,399h2.951v-3.287h-2.951Zm-14.031,4.556a38.939,38.939,0,0,1,8.909-1.876V400.2a55.76,55.76,0,0,0-8.909,1.83Zm11.655-35.585H216.4V369.1h2.014Zm-11.655,36.214h36.737v-.277a39.192,39.192,0,0,0-8.909-1.881v.623h-1.668v-.378H217.332v.378h-1.668v-.623a39.208,39.208,0,0,0-8.909,1.881Zm14.722-4.139h-4.145v.442h4.145ZM226.51,399h2.951v-3.287H226.51Zm-21.518,2.733h-3.723v1.112c.892-.163,2.214-.5,3.723-.9Zm.431-.985v-.494h-3.838l-.316.679v.361h3.737a.791.791,0,0,1,.417-.547m43.555,2.1v-1.112h-3.723v.208c1.509.4,2.83.742,3.723.9m-19.524-11.926H227.04v.287h2.414Zm-8.476.882h2.4v-.3h-2.4Zm24.263,9.494h3.737v-.361l-.316-.679h-3.838v.494a.792.792,0,0,1,.417.547m-21.865-10.376h-2.4v.287h2.4Zm3.663.882h2.414v-.3H227.04Zm12.507-13.52a1.572,1.572,0,1,1,3.145,0v.867h-3.145Zm-1.7-2.493v3.817H244.4v-3.822a.589.589,0,0,0-.589-.589h-5.369a.593.593,0,0,0-.594.593m11.136,27.557c-.879-.152-2.206-.478-3.723-.865v1.705h9.4v-.84Zm-26.417-35.831h.008a.219.219,0,0,0,.218-.219v-3.28a.219.219,0,0,0-.218-.219h-.008a.22.22,0,0,0-.219.219v3.28a.22.22,0,0,0,.219.219M195.6,405.735h59.055v-1.107H195.6Zm9.4-3.249c-1.518.387-2.844.713-3.723.865H195.6v.84h9.4Zm42.469-4.4h-.319v1.72h1.347v-3.475h-1.027Zm0-11.267h-.814v-2.662A.359.359,0,0,1,247,383.8h.1a.359.359,0,0,1,.36.359Zm0,3.588h-2.213v-1.183a1.03,1.03,0,0,1,1.03-1.029h.152a1.032,1.032,0,0,1,1.032,1.031Zm-.053,1.537h-2.16v-1.11h2.16Zm-2.16-7.788a.358.358,0,0,1,.358-.358h.1a.359.359,0,0,1,.359.359v2.661h-.814Zm3.241-1.009h-3.664v9.169h3.664Zm-3.241,12.2a1.03,1.03,0,0,1,1.03-1.03h.152a1.032,1.032,0,0,1,1.032,1.032v.173h1.027v-2.771h-3.664v2.771h.423Zm0,.983h-.424v3.476h.424Zm-11.4-28.357h-2.015V369.1h2.015ZM210.94,382.588h-1.494v-.855h-.634v.855h-1.495v-.955h.716l.214-.42h1.763l.215.42h.715Zm-.233,4.244h-.7v-2.818a.338.338,0,0,1,.337-.339h.018a.341.341,0,0,1,.34.34Zm0,3.576h-.7v-3.156h.7Zm-1.231-3.576h-.7v-2.818a.34.34,0,0,1,.339-.339h.018a.34.34,0,0,1,.339.34Zm0,3.576h-.694v-3.156h.694Zm-1.23-3.576h-.7v-2.818a.338.338,0,0,1,.337-.339h.018a.341.341,0,0,1,.34.34Zm0,3.576h-.7v-3.156h.7Zm4.159-9.519h-6.552v11.428H212.4Zm18.961-12.913h-2.015V369.1h2.015Zm11.565,14.612h-1.495v-.855H240.8v.855h-1.494v-.955h.715l.215-.42H242l.215.42h.716Zm-.234,4.244H242v-2.816a.34.34,0,0,1,.339-.34h.018a.339.339,0,0,1,.338.339Zm0,3.576H242v-3.156h.694Zm-1.23-3.576h-.7v-2.816a.34.34,0,0,1,.339-.34h.018a.339.339,0,0,1,.338.339Zm0,3.576h-.694v-3.156h.694Zm-1.23-3.576h-.7v-2.816a.341.341,0,0,1,.34-.34h.018a.339.339,0,0,1,.337.339Zm0,3.576h-.694v-3.156h.694Zm4.159-9.519h-6.552v11.428H244.4Zm0-.857h-6.552v.435H244.4Zm-37.774,15.493h.952a1.558,1.558,0,1,1,3.111,0h.951v.808h-5.014Zm.944,2.974H208.9v1.324h.464V398.5h1.331v1.324H212.4V392.7h-6.552v7.123h1.713Zm32.3-30.522h-3.054V369.1h2.426c.2-.39.418-.772.628-1.122m-3.524,0h-2.015V369.1h2.015Zm4.782,5.753a1.159,1.159,0,0,0-.591.875h1.18a1.159,1.159,0,0,0-.589-.875M205,399.808h.424v-3.476H205Zm-2.213-4.456a1.032,1.032,0,0,1,1.032-1.032h.152A1.029,1.029,0,0,1,205,395.35v.175h.424v-2.771h-3.665v2.771h1.028Zm.319,2.735h-.319v-1.754h-1.028v3.475h1.347ZM205,386.82h-.814v-2.661a.359.359,0,0,1,.359-.359h.1a.358.358,0,0,1,.358.358Zm0,3.588h-2.213v-1.181a1.032,1.032,0,0,1,1.032-1.031h.152A1.029,1.029,0,0,1,205,389.225Zm0,1.537H202.84v-1.11H205Zm-2.213-7.786a.359.359,0,0,1,.359-.359h.1a.359.359,0,0,1,.358.358v2.662h-.814Zm2.636-1.011h-3.665v9.169h3.665Zm22.256-15.63h.006a.22.22,0,0,0,.219-.219v-3.28a.22.22,0,0,0-.219-.219h-.006a.22.22,0,0,0-.22.219v3.28a.22.22,0,0,0,.22.219m-.686,1.579h1.887v-1.122h-1.887Zm-2-5.234v1.09h.252v-1.09a1.4,1.4,0,0,1,1.361,1.09h.676l-2.064-2.639h-.2l-2.065,2.639h.677a1.4,1.4,0,0,1,1.36-1.09m-18.242,37.59v.016c1.554-.419,3.192-.856,4.7-1.21h-5.6v.406h.115a.788.788,0,0,1,.788.788M223.04,367.5h4.169a.078.078,0,0,0,.078-.078v-.156a.078.078,0,0,0-.078-.079h-1.835V365.8h1.835a.078.078,0,0,0,.078-.078v-.156a.078.078,0,0,0-.078-.079H223.04a.079.079,0,0,0-.079.079v.156a.078.078,0,0,0,.079.078h1.834v1.391H223.04a.079.079,0,0,0-.079.079v.156a.079.079,0,0,0,.079.078" transform="translate(-194.023 -346.609)" fill="#fff"/>
    </g>
  </g>
</svg>
