<?xml version="1.0" encoding="UTF-8"?> <svg xmlns:xlink="http://www.w3.org/1999/xlink" xmlns="http://www.w3.org/2000/svg" width="103.001" height="51.119" viewBox="0 0 103.001 51.119"><g id="Group_10366" data-name="Group 10366" transform="translate(-96 -90.441)"><path id="Union_1" data-name="Union 1" d="M61.407,12.832a1.467,1.467,0,0,1-.223-2.581,1.313,1.313,0,0,1,1.908,1.071.229.229,0,0,0,.2.227,5.211,5.211,0,0,0,1.7,0,.479.479,0,0,0,.357-.277.471.471,0,0,0-.036-.448.784.784,0,0,0-.456-.333,17.041,17.041,0,0,1-2.85-1.064,2.118,2.118,0,0,1-1.177-2.319c.592-2.645,4.046-2.7,6.055-1.882a1.687,1.687,0,0,1,1.1,2.167,1.01,1.01,0,0,1-1.025.625,1.133,1.133,0,0,1-1.307-1.081.22.22,0,0,0-.184-.205,2.489,2.489,0,0,0-1.6.08.451.451,0,0,0,.032.84,15.344,15.344,0,0,1,3.4,1.311c1.8,1.173,1.068,3.617-.818,4.223a7.185,7.185,0,0,1-2.206.366A6.026,6.026,0,0,1,61.407,12.832ZM12.851,9.182A4.537,4.537,0,0,1,17.464,4.73a4.539,4.539,0,0,1,4.721,4.339,4.537,4.537,0,0,1-4.613,4.452h-.061A4.535,4.535,0,0,1,12.851,9.182Zm3.069-.041c0,1.19.722,2.153,1.608,2.152s1.6-.967,1.6-2.158-.722-2.153-1.608-2.152S15.918,7.951,15.92,9.141Zm28.794,4.121a3.947,3.947,0,0,1-2.985-2.542,5.6,5.6,0,0,1-.162-2.181c.262-3.162,3.814-4.627,6.443-3.277q2.348,1.2,2.006,4.354a.236.236,0,0,1-.236.208l-4.92,0q-.612,0-.217.465l.269.311a1.625,1.625,0,0,0,1.009.568,5.893,5.893,0,0,0,3.577-.571.046.046,0,0,1,.048,0,.053.053,0,0,1,.023.045L49.413,12.7a.118.118,0,0,1-.071.109,6.747,6.747,0,0,1-2.916.687A6.544,6.544,0,0,1,44.714,13.262Zm-.165-4.976v.035a.052.052,0,0,0,.052.051l2.684.006a.052.052,0,0,0,.052-.051V8.292a1.183,1.183,0,0,0-.394-.875,1.415,1.415,0,0,0-.955-.363H45.9A1.3,1.3,0,0,0,44.549,8.285Zm35.524,4.87A2.076,2.076,0,0,1,79.346,9.8c1.074-1.234,2.914-1.2,4.464-.956.119.019.181-.031.188-.151.074-1.2-.508-2.023-1.753-1.895a.186.186,0,0,0-.187.2C82,9.372,78.194,8.385,79.472,6.24a2.562,2.562,0,0,1,1.517-1.161c2.933-.882,6.11.016,5.935,3.636q-.055,1.126-.006,2.219a.183.183,0,0,0,.184.193,1.369,1.369,0,0,0,.437-.032q.265-.064.265.205v1.732a.2.2,0,0,1-.233.231l-3.328-.006a.165.165,0,0,1-.188-.189l.01-.429q0-.253-.2-.1a4.022,4.022,0,0,1-2.425.9A3.572,3.572,0,0,1,80.073,13.156Zm1.74-2.632a.658.658,0,0,0,.213.821,1.511,1.511,0,0,0,1.766-.067.416.416,0,0,0,.2-.353v-.68a.19.19,0,0,0-.2-.211c-.273-.022-.588-.071-.891-.071A1.078,1.078,0,0,0,81.814,10.524Zm-10.739,2.85a2.178,2.178,0,0,1-.934-4,5.429,5.429,0,0,1,3.8-.577q.352.038.339-.314Q74.215,6.5,72.595,6.81a.18.18,0,0,0-.158.183,1.425,1.425,0,0,1-1.992,1.286,1.067,1.067,0,0,1-.776-.757c-.893-3.341,7.381-4.108,7.481.234q.039,1.526,0,3.149a.186.186,0,0,0,.217.215l.64-.006a.153.153,0,0,1,.178.173l0,1.745a.2.2,0,0,1-.23.228H74.6a.192.192,0,0,1-.217-.218l0-.471q0-.211-.161-.074a3.7,3.7,0,0,1-2.465.934A4.363,4.363,0,0,1,71.075,13.374ZM72.2,10.4c-.43,1.218.983,1.4,1.776.965a.472.472,0,0,0,.262-.436l0-.7A.194.194,0,0,0,74.021,10l-1.232-.016H72.78A.615.615,0,0,0,72.2,10.4Zm-19.1,3.011a2.431,2.431,0,0,1-1.792-.9,2.236,2.236,0,0,1,.773-3.274,5.818,5.818,0,0,1,3.72-.42.166.166,0,0,0,.213-.164c.129-1.18-.382-1.953-1.621-1.857A.211.211,0,0,0,54.172,7a1.351,1.351,0,0,1-1.7,1.34,1.184,1.184,0,0,1-1.029-.711A1.938,1.938,0,0,1,52.7,5.22c2.361-1,6.291-.51,6.246,2.905q-.019,1.382,0,2.831a.141.141,0,0,0,.162.16l.656-.006a.129.129,0,0,1,.13.128l0,1.837a.162.162,0,0,1-.184.183h-3.38a.183.183,0,0,1-.207-.212l.013-.446q.01-.25-.184-.09a3.715,3.715,0,0,1-2.458.917Q53.3,13.428,53.094,13.409Zm1.527-3.418a.789.789,0,0,0-.482,1.36,1.384,1.384,0,0,0,1.64-.035.429.429,0,0,0,.23-.4L56,10.241a.227.227,0,0,0-.21-.228q-.409-.029-.81-.029Q54.8,9.985,54.621,9.991ZM8.678,13.255a.107.107,0,0,1-.094-.051L5.851,8.548A.107.107,0,0,0,5.775,8.5a.108.108,0,0,0-.089.027l-1.068.965a.106.106,0,0,0-.035.081v1.148a.106.106,0,0,0,.107.106l1.155,0a.106.106,0,0,1,.107.106v2.222a.106.106,0,0,1-.107.106H.11A.106.106,0,0,1,0,13.153l0-2.222a.106.106,0,0,1,.107-.106l1.2-.006a.106.106,0,0,0,.107-.106l0-6.779a.106.106,0,0,0-.107-.106H.11A.106.106,0,0,1,0,3.722l0-2.26a.106.106,0,0,1,.107-.106h5.5a.106.106,0,0,1,.107.106V3.584a.106.106,0,0,1-.107.106l-.915-.01a.106.106,0,0,0-.107.106L4.57,6.262a.107.107,0,0,0,.181.077l2.73-2.52A.1.1,0,0,0,7.51,3.7a.106.106,0,0,0-.11-.063l-.608.045a.11.11,0,0,1-.08-.029.106.106,0,0,1-.034-.078l0-2.11a.106.106,0,0,1,.107-.106h5.44a.106.106,0,0,1,.107.106V3.719a.106.106,0,0,1-.107.106l-1.171.006a.107.107,0,0,0-.071.029L8.3,6.326a.105.105,0,0,0-.019.131l2.688,4.316a.107.107,0,0,0,.09.051l1.268,0a.106.106,0,0,1,.107.106v2.229a.106.106,0,0,1-.107.106Zm88.4,0a.113.113,0,0,1-.113-.113l0-1.92a.113.113,0,0,1,.113-.112l.806,0A.113.113,0,0,0,97.993,11V7.243a.112.112,0,0,0-.034-.081.117.117,0,0,0-.082-.032l-.8.016a.116.116,0,0,1-.082-.032.112.112,0,0,1-.034-.081l.006-1.95a.113.113,0,0,1,.113-.112l3.742,0a.113.113,0,0,1,.113.112l0,5.919a.112.112,0,0,0,.113.112h.757a.113.113,0,0,1,.113.112l0,1.92a.113.113,0,0,1-.113.113Zm-8.368,0a.155.155,0,0,1-.178-.173V11.271a.142.142,0,0,1,.168-.161l.488.013a.226.226,0,0,0,.265-.256l0-3.566a.153.153,0,0,0-.184-.173l-.521.019a.179.179,0,0,1-.214-.2V5.118a.131.131,0,0,1,.149-.148h3.451a.179.179,0,0,1,.2.2l-.006.837q0,.346.194.061a2.438,2.438,0,0,1,3.241-.946,1.412,1.412,0,0,1,.718,1.327,1.612,1.612,0,0,1-3.083.786q-.075-.167-.207-.044l-.7.625a.311.311,0,0,0-.107.234v2.905a.142.142,0,0,0,.158.16h.909a.229.229,0,0,1,.259.26l0,1.632a.222.222,0,0,1-.252.25Zm-50.766,0a.308.308,0,0,1-.285-.164l-1.792-3.081a.256.256,0,0,0-.417-.093q-.77.519-.589,1.083a.233.233,0,0,0,.272.176l.294-.029q.2-.019.2.176v1.792a.122.122,0,0,1-.139.138l-4.273,0A.226.226,0,0,1,30.957,13l0-1.6a.249.249,0,0,1,.288-.279l.466.006a.169.169,0,0,0,.2-.189V2.4c0-.152-.077-.222-.23-.212l-.485.032a.194.194,0,0,1-.236-.221V.227A.2.2,0,0,1,31.187,0H34.68a.145.145,0,0,1,.165.164l0,8.1a.133.133,0,0,0,.074.121.135.135,0,0,0,.142-.012l1.443-1.042q.317-.23-.078-.218l-.388.013q-.168.006-.168-.157l0-1.8a.171.171,0,0,1,.194-.192l4.479,0a.258.258,0,0,1,.291.292v1.7a.168.168,0,0,1-.19.189l-.805-.01a.7.7,0,0,0-.418.135l-1.238.895a.175.175,0,0,0-.052.263l1.511,2.459a.38.38,0,0,0,.356.192l.585-.013c.17,0,.255.077.252.244V13.06a.177.177,0,0,1-.2.2Zm-14.684,0a.184.184,0,0,1-.207-.208l.006-1.741a.176.176,0,0,1,.2-.2l.488.01a.208.208,0,0,0,.24-.234V7.365a.2.2,0,0,0-.24-.231l-.491.016a.194.194,0,0,1-.2-.192V5.188a.216.216,0,0,1,.217-.214l3.371,0a.216.216,0,0,1,.216.211l.006.808q0,.382.21.061a2.711,2.711,0,0,1,1.355-1.083A1.8,1.8,0,0,1,30.99,6.259a1.626,1.626,0,0,1-2.432,1.715,1.023,1.023,0,0,1-.618-.747.123.123,0,0,0-.2-.064l-.644.555a.458.458,0,0,0-.165.359l0,2.825a.194.194,0,0,0,.22.215l.8,0a.23.23,0,0,1,.262.259v1.613a.243.243,0,0,1-.278.273Zm74.209-11.1a1.844,1.844,0,1,1,1.844,1.828A1.836,1.836,0,0,1,97.468,2.158Z" transform="translate(96.164 90.441)" fill="#aac929"></path><path id="Path_165" data-name="Path 165" d="M64.47,135.988q2.5.016,5.039-.016a6.232,6.232,0,0,0,1.375-.176,7.928,7.928,0,0,0,1.682-.462,4.515,4.515,0,0,0,2.7-3.53q.217-1.3.53-2.671a.639.639,0,0,1,.624-.494h4.955a.155.155,0,0,1,.175.176l0,14.025a.171.171,0,0,1-.194.192H52a1.039,1.039,0,0,1-1.181-1.17v-7.128a.4.4,0,0,1,.149-.311l18.99-15.314q.2-.164-.058-.164-3.691.01-7.588,0a6.717,6.717,0,0,0-2.7.58c-2.309,1.013-2.565,3.784-2.892,6.031a.834.834,0,0,1-.825.709l-4.823,0a.174.174,0,0,1-.2-.2V112.026a.165.165,0,0,1,.188-.186l29.505.135a.979.979,0,0,1,.98.975l0,7.5a1.251,1.251,0,0,1-.433.946L64.408,135.821Q64.217,135.985,64.47,135.988Z" transform="translate(45.18 -1.824)" fill="#25582b"></path><path id="Path_163" data-name="Path 163" d="M184.707,135.338a9.505,9.505,0,0,1-6.362,5.422,12.422,12.422,0,0,1-2.584.552c-.867.051-1.669.317-2.549.343q-4.266.115-8.073,0c-.944-.029-1.821-.321-2.759-.362a8.926,8.926,0,0,1-1.7-.356c-4.68-1.058-7.265-4.441-8.122-8.943a24.291,24.291,0,0,1-.534-4.015q-.055-3.081.006-6.2a24.832,24.832,0,0,1,.446-3.546c.56-3.3,2.183-6.044,5.434-7.41a11.847,11.847,0,0,1,2.859-.834c.86-.125,1.675-.346,2.536-.4a85.417,85.417,0,0,1,11.858.01c.725.051,1.349.285,2.073.343a9.64,9.64,0,0,1,1.84.43c5.288,1.488,6.8,5.932,7.109,10.838a57.667,57.667,0,0,1-.065,8.664A16.47,16.47,0,0,1,184.707,135.338Zm-20.588-5.464c.718,2.488,2.7,4.627,5.444,4.406,2.672-.215,4.27-2.424,4.8-4.916a8.02,8.02,0,0,0,.278-1.029,33.593,33.593,0,0,0,.01-6.054,13.233,13.233,0,0,0-.527-2.321,4.44,4.44,0,0,0-3.26-3.351c-2.361-.542-5.14-.109-6.262,2.312a10.771,10.771,0,0,0-.915,3.248,28.844,28.844,0,0,0-.11,5.079A11.926,11.926,0,0,0,164.12,129.874Z" transform="translate(-23.273 -0.154)" fill="#25582b"></path><path id="Path_164" data-name="Path 164" d="M264.732,114.292a9.471,9.471,0,0,1,7-4.316c.815-.115,1.565-.327,2.384-.385a83.561,83.561,0,0,1,11.842.006,6.826,6.826,0,0,1,1.187.189c.618.154,1.229.141,1.853.3,3.422.875,5.89,2.488,7.077,5.977a19.131,19.131,0,0,1,.935,4.335,45.508,45.508,0,0,1-.181,10.636,16.114,16.114,0,0,1-.928,3.569,9.744,9.744,0,0,1-6.6,6.134,12.651,12.651,0,0,1-2.782.59c-.812.051-1.569.295-2.4.324q-3.907.122-7.973.006c-1.025-.029-2.038-.276-3.073-.4a10.336,10.336,0,0,1-8.785-6.394,14.678,14.678,0,0,1-1.032-3.838c-.12-1.036-.382-2.02-.414-3.049q-.091-2.956.01-6.144c.032-1.016.275-2.007.4-3.03A11.991,11.991,0,0,1,264.732,114.292ZM282.341,133.7c1.9-.972,2.833-3.351,3.115-5.387a23.7,23.7,0,0,0-.133-7.019c-.369-2.283-1.456-4.322-3.949-4.755-3.522-.612-5.926.843-6.611,4.431a19.247,19.247,0,0,0,.058,8.372,7.06,7.06,0,0,0,2.18,3.79A4.489,4.489,0,0,0,282.341,133.7Z" transform="translate(-98.232 -0.156)" fill="#25582b"></path></g></svg> 