<svg width="192" height="24" viewBox="0 0 192 24" fill="none" xmlns="http://www.w3.org/2000/svg">
<g clip-path="url(#clip0_45_50468)">
<path d="M12.3775 12.2775C13.5875 10.7925 16.9125 5.935 17.645 5.0975C18.4325 4.2 19.48 2.9875 20.7975 2.85C22.9725 2.615 25.025 4.0425 25.025 6.5525C25.025 8.3925 23.7825 10.4025 23.0225 11.59L23.62 12.3C24.155 11.685 24.9525 10.7825 25.8375 9.7125C27.975 7.13 27.7675 5.75 27.7675 5.2025C27.7675 3.595 26.595 0.275 22.5925 0.275C19.645 0.275 18.165 2.315 17.0425 3.725C16.165 4.815 12.405 10.265 11.5575 11.3575L12.38 12.275L12.3775 12.2775Z" fill="white"/>
<path d="M0 23.71L0.31 24C0.31 24 4.1575 22.1425 7.9025 17.805L7.0075 16.8075C3.55 21.4575 0 23.7075 0 23.7075V23.71Z" fill="white"/>
<path d="M16.935 20.0575C7.7725 9.56 7.805 9.5675 7.15 8.8975C5.715 7.435 5.1325 5.985 5.0875 4.765C5.0175 2.865 6.2425 1.5175 7.5725 1.5175C9.71 1.5175 10.9325 3.805 11.6 4.6425C12.025 5.175 12.8025 6.445 12.8025 6.445L14.63 4.0525C14.3625 3.7175 13.865 3.0025 13.48 2.6C12.265 1.3175 10.91 0 7.7275 0C6.6325 0 2.0875 0.5925 2.0875 5.5525C2.0875 7.22 2.81 9.0875 4.3875 10.985C7.615 14.8775 14.6575 22.7525 15.49 24L19.535 18.3125L18.9875 17.66L16.9325 20.055L16.935 20.0575Z" fill="white"/>
<path d="M28.8625 24C28.8625 24 30.1825 22.9975 31.995 21.29C29.9 21.47 27.4075 19.8275 24.6675 16.6075C24.6675 16.6075 17.6925 8.12 17.665 8.0825L15.845 10.42C15.865 10.4475 18.8675 14.4425 22.095 18.4025C24.61 21.4875 27.3275 23.9325 28.8625 23.9975V24Z" fill="white"/>
<path d="M85.0627 4.67973C85.8377 5.07723 86.1602 5.60723 86.1602 6.68723V10.5872H79.7252V6.68723C79.7252 5.60723 80.0477 5.07723 80.8227 4.67973V4.28223H75.2202V4.67973C75.9952 5.07723 76.3177 5.60723 76.3177 6.68723V17.0222C76.3177 18.1022 75.9952 18.6322 75.2202 19.0297V19.4272H80.8227V19.0297C80.0477 18.6322 79.7252 18.1022 79.7252 17.0222V12.4997H86.1602V17.0222C86.1602 18.1022 85.8377 18.6322 85.0627 19.0297V19.4272H90.6652V19.0297C89.8902 18.6322 89.5677 18.1022 89.5677 17.0222V6.68723C89.5677 5.60723 89.8902 5.07723 90.6652 4.67973V4.28223H85.0627V4.67973Z" fill="white"/>
<path d="M94.9277 4.67973C95.7027 5.07723 96.0252 5.60723 96.0252 6.68723V17.0222C96.0252 18.1022 95.7027 18.6322 94.9277 19.0297V19.4272H100.53V19.0297C99.7552 18.6322 99.4327 18.1022 99.4327 17.0222V6.68723C99.4327 5.60723 99.7552 5.07723 100.53 4.67973V4.28223H94.9277V4.67973Z" fill="white"/>
<path d="M68.0076 6.19473C69.4651 6.19473 70.3726 6.55473 71.0351 7.15973H71.5276L70.7326 4.28223H60.0776V4.67973C60.9476 5.17223 61.1751 5.71973 61.1751 7.13973V16.5647C61.1751 17.9847 60.9476 18.5322 60.0776 19.0247V19.4222H70.7526L71.5276 16.5072H71.0351C70.4301 17.1322 69.3701 17.5097 68.0251 17.5097H64.5801V12.7397H68.2701C68.9901 12.7397 69.5001 13.0622 69.6901 13.5722H70.1251V9.95723H69.6901C69.4051 10.4672 68.9901 10.8272 68.2701 10.8272H64.5801V6.18973H68.0051L68.0076 6.19473Z" fill="white"/>
<path d="M154.38 4.67977C155.345 5.13477 155.685 5.85227 155.685 6.93227V13.5248L145.693 4.07227H145.22V16.7723C145.22 17.8523 144.898 18.5698 144.123 19.0248V19.4223H148.438V19.0248C147.473 18.5698 147.15 17.8523 147.15 16.7723V10.1423L157.183 19.6098H157.618V6.92726C157.618 5.84726 157.94 5.12976 158.715 4.67476V4.27727H154.38V4.67476V4.67977Z" fill="white"/>
<path d="M112.135 17.5128H109.295V6.68527C109.295 5.60527 109.618 5.07527 110.393 4.67777V4.28027H104.79V4.67777C105.565 5.07527 105.888 5.60527 105.888 6.68527V17.0378C105.888 18.1178 105.565 18.6278 104.79 19.0253V19.4228H115.125L115.808 16.4503H115.373C114.445 17.2828 113.63 17.5103 112.135 17.5103V17.5128Z" fill="white"/>
<path d="M187.665 4.28226V4.67977C188.63 5.13477 188.97 5.85227 188.97 6.93227V13.5248L178.978 4.07227H178.505V16.7723C178.505 17.8523 178.183 18.5698 177.408 19.0248V19.4223H181.723V19.0248C180.758 18.5698 180.435 17.8523 180.435 16.7723V10.1423L190.468 19.6098H190.903V6.92726C190.903 5.84726 191.225 5.12976 192 4.67476V4.27727H187.665V4.28226Z" fill="white"/>
<path d="M170.398 6.19473C171.855 6.19473 172.763 6.55473 173.425 7.15973H173.918L173.123 4.28223H162.468V4.67973C163.338 5.17223 163.565 5.71973 163.565 7.13973V16.5647C163.565 17.9847 163.338 18.5322 162.468 19.0247V19.4222H173.143L173.918 16.5072H173.425C172.82 17.1322 171.76 17.5097 170.415 17.5097H166.97V12.7397H170.66C171.38 12.7397 171.89 13.0622 172.08 13.5722H172.515V9.95723H172.08C171.795 10.4672 171.38 10.8272 170.66 10.8272H166.97V6.18973H170.395L170.398 6.19473Z" fill="white"/>
<path d="M134.8 4.67973C135.575 5.07723 135.898 5.60723 135.898 6.68723V17.0222C135.898 18.1022 135.575 18.6322 134.8 19.0297V19.4272H140.403V19.0297C139.628 18.6322 139.305 18.1022 139.305 17.0222V6.68723C139.305 5.60723 139.628 5.07723 140.403 4.67973V4.28223H134.8V4.67973Z" fill="white"/>
<path d="M128.493 4.9248C129.42 4.9248 130.178 4.2048 130.178 3.2773C130.178 2.3498 129.42 1.6123 128.493 1.6123C127.565 1.6123 126.828 2.3323 126.828 3.2773C126.828 4.2223 127.585 4.9248 128.493 4.9248Z" fill="white"/>
<path d="M121.283 4.9248C122.21 4.9248 122.968 4.2048 122.968 3.2773C122.968 2.3498 122.21 1.6123 121.283 1.6123C120.355 1.6123 119.618 2.3323 119.618 3.2773C119.618 4.2223 120.375 4.9248 121.283 4.9248Z" fill="white"/>
<path d="M130.955 17.4002L125.068 4.0752H124.613L118.633 17.4002C118.16 18.4402 117.8 18.8577 117.498 19.0277V19.4252H121.32V19.0277C120.638 18.6102 120.525 17.8927 120.98 16.9077L121.36 16.0552H126.75L127.113 16.9077C127.548 17.9302 127.453 18.5927 126.79 19.0277V19.4252H132.128V19.0277C131.655 18.6877 131.353 18.3077 130.955 17.4002ZM122.168 14.2377L124.11 9.87519L125.973 14.2377H122.168Z" fill="white"/>
<path d="M55.4151 16.8494L54.0901 4.14941H53.5976L46.5651 14.7644L39.2501 4.14941H38.7951L37.5076 16.4519C37.3551 17.8719 37.0526 18.6469 36.3726 19.0269V19.4244H40.5751V19.0644C39.8176 18.6869 39.3451 17.8719 39.5151 16.2244L40.0226 11.3144L45.5526 19.2169H46.0626L51.4451 11.0894L52.0451 16.8144C52.1576 17.9869 51.8176 18.5569 51.0601 19.0294V19.4269H56.5501V18.9919C55.8301 18.5369 55.5276 17.9319 55.4151 16.8519V16.8494Z" fill="white"/>
</g>
<defs>
<clipPath id="clip0_45_50468">
<rect width="192" height="24" fill="white"/>
</clipPath>
</defs>
</svg>
