<?xml version="1.0" encoding="UTF-8"?> <svg xmlns="http://www.w3.org/2000/svg" width="132" height="32" viewBox="0 0 132 32" fill="none"><g clip-path="url(#clip0_14_48709)"><path d="M68.6493 12.2865L70.08 12.1135V15.213H73.786V12.2865L75.2167 12.1135V19.7544H73.786V16.4912H70.08V19.7544H68.6493V12.2865Z" fill="#0046AD"></path><path d="M79.3265 12.2865L80.7572 12.1135V19.7544H79.3265V12.2865Z" fill="#0046AD"></path><path d="M84.8651 12.1674H89.0381L88.8204 13.4456H86.2734V15.2335H88.6474V16.4688H86.2734V18.4744H88.9935V19.7526H84.8632V12.1656L84.8651 12.1674Z" fill="#0046AD"></path><path d="M92.627 12.1674H94.5023C96.0093 12.1674 97.2223 12.7851 97.2223 14.2698C97.2223 15.3433 96.6363 16.0912 95.6726 16.4149L97.8828 19.7526H96.214L94.2512 16.5879H94.0558V19.7526H92.6251V12.1656L92.627 12.1674ZM94.4261 15.5498C95.2502 15.5498 95.7805 15.1814 95.7805 14.4C95.7805 13.5646 95.1944 13.3377 94.4372 13.3377H94.0577V15.5479H94.4261V15.5498Z" fill="#0046AD"></path><path d="M100.335 15.9609C100.335 13.7823 102.058 12.0372 104.324 12.0372C106.59 12.0372 108.313 13.7823 108.313 15.9609C108.313 18.1395 106.59 19.8847 104.324 19.8847C102.058 19.8847 100.335 18.1395 100.335 15.9609ZM104.324 18.5507C105.743 18.5507 106.86 17.4009 106.86 15.9609C106.86 14.5209 105.743 13.3712 104.324 13.3712C102.904 13.3712 101.788 14.5209 101.788 15.9609C101.788 17.4009 102.904 18.5507 104.324 18.5507Z" fill="#0046AD"></path><path d="M112.4 16.6549V12.2865L113.831 12.1135V16.7516C113.831 18.7237 113.072 19.8307 111.046 19.8307H110.819L111.036 18.4967H111.047C112.076 18.4967 112.402 17.9442 112.402 16.6549H112.4Z" fill="#0046AD"></path><path d="M120.106 12.1674H120.789L124.54 19.7544H122.967L122.188 18.106H118.655L117.875 19.7544H116.402L120.108 12.1674H120.106ZM121.613 16.893L120.42 14.3777L119.228 16.893H121.613Z" fill="#0046AD"></path><path d="M127.9 13.4474H125.927V12.1693H131.325L131.107 13.4474H129.328V19.7563H127.898V13.4474H127.9Z" fill="#0046AD"></path><path d="M98.2679 26.1544C97.1107 26.1544 96.3925 26.8298 96.3925 28.2381C96.3925 29.8716 97.2353 30.3293 98.4055 30.3293C98.6493 30.3293 99.1758 30.294 99.5051 30.2381C99.5442 30.2233 99.5646 30.2233 99.5776 30.1674L99.6428 29.626C99.6465 29.5814 99.6428 29.5758 99.6316 29.5647C99.6167 29.5516 99.5814 29.5553 99.5776 29.5553C99.2558 29.5907 98.9655 29.6186 98.7218 29.6186C97.9516 29.6186 97.5702 29.386 97.5702 28.64C97.5702 28.5842 97.5907 28.5767 97.6297 28.5767H100.037C100.076 28.5767 100.102 28.5563 100.102 28.4986C100.102 26.9637 99.7004 26.1544 98.266 26.1544H98.2679ZM98.9041 27.9498H97.5962C97.5497 27.9498 97.5367 27.9349 97.5367 27.8716C97.5367 27.3005 97.6614 26.8223 98.2604 26.8223C98.8595 26.8223 98.9767 27.2949 98.9767 27.8791C98.9767 27.9423 98.9507 27.9498 98.9041 27.9498Z" fill="#0046AD"></path><path d="M97.1479 25.6967L97.213 25.0716V25.0567C97.213 25.0177 97.1777 25.0028 97.1479 25.0028H93.1367C93.0735 25.0028 93.0586 25.0177 93.0586 25.0791V25.6874C93.0586 25.7414 93.0865 25.773 93.1293 25.773H94.5005V30.1526C94.5005 30.214 94.5209 30.2456 94.5712 30.2456H95.5981C95.6614 30.2456 95.6837 30.2065 95.6837 30.1526V25.773H97.0698C97.12 25.773 97.1405 25.7507 97.1479 25.6967Z" fill="#0046AD"></path><path d="M116.073 27.226C116.073 26.867 116.376 26.8037 116.835 26.8037C117.066 26.8037 117.453 26.8391 117.676 26.8521H117.689C117.723 26.8521 117.736 26.8316 117.741 26.7963L117.82 26.3237C117.82 26.2809 117.78 26.2605 117.741 26.253C117.425 26.1823 117.005 26.1191 116.618 26.1191C115.73 26.1191 114.967 26.4428 114.967 27.2744C114.967 28.5488 116.815 28.3163 116.815 29.1554C116.815 29.5293 116.493 29.6335 115.98 29.6335C115.637 29.6335 115.211 29.5981 115.04 29.5851C114.98 29.5851 114.962 29.6056 114.962 29.6484V30.1619C114.962 30.2047 114.982 30.2251 115.034 30.24C115.317 30.2884 115.725 30.3386 116.132 30.3386C117.321 30.3386 117.913 29.8381 117.913 29.0214C117.913 27.7042 116.073 27.9647 116.073 27.226Z" fill="#0046AD"></path><path d="M122.683 26.1544C122.262 26.1544 121.691 26.1972 121.349 26.2381C121.315 26.253 121.297 26.266 121.297 26.294V26.3088L121.356 26.8167C121.369 26.8595 121.382 26.88 121.429 26.88H121.449C121.732 26.8595 122.074 26.8316 122.324 26.8316C123.079 26.8316 123.31 27.0847 123.31 27.7191C123.099 27.6912 122.672 27.6409 122.417 27.6409C121.581 27.6409 120.859 27.894 120.859 28.9507C120.859 30.0074 121.602 30.3312 122.64 30.3312C123.206 30.3312 123.823 30.24 124.322 30.1767C124.387 30.1619 124.4 30.1284 124.4 30.0781V27.6837C124.4 26.5563 123.73 26.1563 122.685 26.1563L122.683 26.1544ZM123.321 29.5274C123.321 29.5758 123.308 29.5981 123.248 29.5981H122.755C122.242 29.5981 121.961 29.4363 121.961 28.9153C121.961 28.4298 122.236 28.2958 122.755 28.2958H123.254C123.306 28.2958 123.319 28.3107 123.319 28.3516V29.5274H123.321Z" fill="#0046AD"></path><path d="M126.121 24.7628L125.161 24.8335C125.114 24.8484 125.101 24.8688 125.101 24.9116V30.1767C125.101 30.2251 125.114 30.2474 125.161 30.2474H126.126C126.179 30.2474 126.192 30.227 126.192 30.1767V24.8335C126.192 24.7851 126.166 24.7628 126.119 24.7628H126.121Z" fill="#0046AD"></path><path d="M102.616 26.1916C102.089 26.2121 101.367 26.2809 100.91 26.3312C100.694 26.3535 100.662 26.5172 100.662 26.6754V30.1767C100.662 30.2251 100.688 30.2474 100.727 30.2474H101.687C101.734 30.2474 101.753 30.227 101.753 30.1712V27.0195C101.753 26.9228 101.82 26.8967 101.859 26.893C102.154 26.8726 102.318 26.854 102.601 26.8465C102.647 26.8465 102.673 26.8186 102.673 26.7833V26.2623C102.673 26.2195 102.653 26.1916 102.614 26.1916H102.616Z" fill="#0046AD"></path><path d="M106.815 26.2251H105.831C105.803 26.2251 105.78 26.2437 105.773 26.2698L105.185 28.6623L105.118 28.934L104.971 29.5312V29.5386C104.949 29.6223 104.83 29.6223 104.809 29.5386V29.5312H104.807L104.612 28.733L104.595 28.6642L104.007 26.2716C104.002 26.2456 103.978 26.227 103.95 26.227H102.966C102.928 26.227 102.906 26.2567 102.915 26.2921L103.998 29.9981C104.041 30.1451 104.177 30.2456 104.329 30.2456H105.449C105.602 30.2456 105.738 30.1451 105.78 29.9981L106.863 26.2921C106.874 26.2549 106.852 26.227 106.813 26.227L106.815 26.2251Z" fill="#0046AD"></path><path d="M114.739 26.227H113.777C113.743 26.227 113.717 26.2474 113.712 26.2753L112.91 29.5423C112.897 29.5777 112.876 29.5981 112.845 29.5981H112.824C112.798 29.5981 112.765 29.5777 112.752 29.5349L111.831 26.2753C111.818 26.2326 111.797 26.227 111.751 26.227H110.757C110.757 26.227 110.74 26.227 110.733 26.2288C110.707 26.2326 110.69 26.2567 110.698 26.2809L110.785 26.5488L110.815 26.64L111.905 29.9814C111.965 30.1265 112.084 30.2456 112.246 30.2456H112.567C112.594 30.2456 112.627 30.266 112.627 30.3088V30.3163C112.623 30.3349 112.62 30.3535 112.614 30.3702C112.458 30.9042 111.81 31.6093 111.667 31.7674L111.635 31.8028C111.607 31.8344 111.63 31.8847 111.673 31.8847H112.562C112.608 31.8847 112.647 31.8642 112.681 31.8363C112.992 31.5256 113.204 31.3023 113.516 30.6847C113.732 30.2567 113.901 29.6744 113.987 29.3674L114.569 27.1256L114.789 26.2847C114.796 26.2549 114.774 26.227 114.744 26.227H114.739Z" fill="#0046AD"></path><path d="M120.554 29.5981H120.331C119.97 29.5981 119.812 29.4921 119.812 29.1126V26.9228C119.812 26.8744 119.838 26.8447 119.885 26.8447H120.404C120.45 26.8447 120.469 26.8242 120.469 26.7814V26.2958C120.469 26.2474 120.448 26.2251 120.396 26.2251H119.883C119.831 26.2251 119.81 26.1972 119.81 26.1544V25.1554C119.81 25.0995 119.797 25.0847 119.751 25.0847L118.791 25.1479C118.744 25.1553 118.726 25.1758 118.726 25.2186L118.718 26.1488C118.718 26.1972 118.705 26.227 118.659 26.227H118.272C118.22 26.227 118.199 26.2474 118.199 26.2902V26.7833C118.199 26.826 118.225 26.854 118.264 26.854H118.659C118.705 26.854 118.718 26.8744 118.718 26.9247V29.2353C118.718 29.9963 119.053 30.2995 119.717 30.2995C119.963 30.2995 120.145 30.2865 120.458 30.2586C120.545 30.2493 120.554 30.16 120.554 30.16L120.61 29.6726V29.6651C120.61 29.6298 120.584 29.6019 120.551 29.6019L120.554 29.5981Z" fill="#0046AD"></path><path d="M128.724 26.1619C127.548 26.1619 126.778 26.7963 126.778 28.2753C126.778 29.6353 127.501 30.3237 128.724 30.3237C129.946 30.3237 130.662 29.626 130.662 28.2753C130.662 26.7833 129.9 26.1619 128.724 26.1619ZM128.724 29.6688C128.119 29.6688 127.875 29.2893 127.875 28.2679C127.875 27.1907 128.099 26.7963 128.724 26.7963C129.349 26.7963 129.565 27.1833 129.565 28.2679C129.565 29.2744 129.341 29.6688 128.724 29.6688Z" fill="#0046AD"></path><path d="M108.817 26.1544C107.66 26.1544 106.941 26.8298 106.941 28.2381C106.941 29.8716 107.784 30.3293 108.954 30.3293C109.198 30.3293 109.725 30.294 110.054 30.2381C110.093 30.2233 110.113 30.2233 110.127 30.1674L110.192 29.626C110.195 29.5814 110.192 29.5758 110.18 29.5647C110.166 29.5516 110.13 29.5553 110.127 29.5553C109.805 29.5907 109.514 29.6186 109.271 29.6186C108.5 29.6186 108.119 29.386 108.119 28.64C108.119 28.5842 108.14 28.5767 108.179 28.5767H110.586C110.625 28.5767 110.651 28.5563 110.651 28.4986C110.651 26.9637 110.249 26.1544 108.815 26.1544H108.817ZM109.453 27.9498H108.145C108.099 27.9498 108.086 27.9349 108.086 27.8716C108.086 27.3005 108.21 26.8223 108.809 26.8223C109.408 26.8223 109.526 27.2949 109.526 27.8791C109.526 27.9423 109.5 27.9498 109.453 27.9498Z" fill="#0046AD"></path><path d="M64.2679 25.6633C63.7097 26.1265 62.7888 26.8 61.6093 26.7981C59.5795 26.7981 59.5665 24.4465 60.026 21.4958C60.3739 19.2614 60.8409 16.186 61.0418 14.8577C60.2809 13.7693 58.3907 12.2233 55.3246 12.2233C52.4111 12.2177 49.2111 14.3293 47.1125 17.7154C45.7823 19.8586 45.2576 22.1321 45.1311 24.1544C45.0865 24.8707 45.1721 25.5349 45.3339 26.1377C44.7237 26.4874 43.3209 27.174 42.519 26.5656C41.4716 25.7712 41.7711 23.5684 42.0986 22.0056C42.2307 21.4567 43.9367 14.4335 46.7963 1.16837H42.8372C41.1274 9.08651 39.7618 15.027 38.9414 18.5507C38.3925 20.9079 38.2083 21.5833 38.0316 22.4354C38.013 22.5265 37.9963 22.6214 37.9795 22.7163C33.7432 26.7888 30.2269 27.4437 27.9944 26.8205C30.1972 25.5498 34.9935 22.4837 36.2028 17.7507C36.6697 15.9256 36.0576 14.2121 34.8186 13.1163C34.333 12.6865 33.7749 12.413 33.1609 12.3014L33.12 12.294C29.987 11.7972 26.3256 13.9758 24.0074 17.7154C22.6679 19.8735 22.0167 22.1581 22.026 24.1954C22.026 24.5321 22.1004 25.2986 22.2846 25.9665C21.1516 26.5098 19.2204 26.8707 17.4418 26.8763C14.5376 26.8856 11.7656 24.5414 10.6623 22.3535C11.52 22.2977 12.6474 22.1693 13.5051 21.9628C20.4242 20.2958 24.8949 14.1321 23.4697 8.2214C22.0465 2.3107 15.2595 -1.14419 8.34044 0.522792C2.86323 1.84186 0.0595093 5.95535 0.0595093 5.95535L2.86323 8.85581C4.08928 6.66977 6.47253 4.7721 9.25021 4.10233C14.0874 2.93768 18.7721 5.30047 19.6949 9.1293C20.6176 12.9581 17.4325 17.2149 12.5953 18.3795C10.9302 18.7814 9.22044 18.6958 7.66323 18.3349C7.83625 17.3749 8.15067 15.8567 8.33114 14.8558H4.38509C3.13114 21.7935 1.96649 28.266 1.61486 30.266H5.55718C5.81579 28.8019 6.26416 26.2679 6.82044 23.1423C6.92277 23.3005 8.45951 25.8158 9.52184 26.9767C12.3404 30.0502 15.3153 30.5749 17.3265 30.5674C19.7153 30.5581 21.7172 30.3647 24.3349 29.0995C25.2167 29.827 26.653 30.5619 28.8111 30.5805C31.0511 30.5991 33.6707 30.2605 37.0604 28.0242C37.4139 27.7916 37.8809 27.4549 38.3442 27.1144C38.6679 27.9349 39.1702 28.7051 39.9051 29.3451C40.8186 30.1395 42.1674 30.5767 43.1832 30.5805C45.0214 30.586 47.04 29.6223 47.4307 29.427C48.1097 29.9442 49.2614 30.5749 50.6995 30.5805C53.7842 30.5935 55.4735 28.7665 56.5823 27.4065C57.04 28.3684 57.7209 29.1591 58.6102 29.7116C59.4623 30.24 60.4372 30.5991 61.4716 30.5805C63.5739 30.5433 65.3358 29.4493 66.3888 28.7274L64.2697 25.6633H64.2679ZM27.3042 19.7619C28.8186 17.3191 30.8576 15.9591 32.1879 15.9144C32.7144 15.8958 33.0269 16.4335 32.359 17.9647C31.639 19.6167 29.6595 22.3349 26.0725 23.9981C26.0056 22.6754 26.5488 20.9786 27.3023 19.7619H27.3042ZM57.0921 16.6233C56.7274 18.8651 54.9339 26.9953 50.679 26.813C49.4009 26.7591 49.0214 25.2726 49.0102 24.2381C48.9953 22.9712 49.2632 21.3656 50.2195 19.76C51.8307 17.0549 53.9851 15.9126 55.3172 15.9126C56.0465 15.9126 56.5823 16.0019 57.1237 16.4298C57.12 16.454 57.0976 16.5972 57.0939 16.6233H57.0921Z" fill="#0046AD"></path></g><defs><clipPath id="clip0_14_48709"><rect width="131.349" height="32" fill="white"></rect></clipPath></defs></svg> 