<?xml version="1.0" encoding="UTF-8"?>
<svg width="103px" height="101px" viewBox="0 0 103 101" version="1.1" xmlns="http://www.w3.org/2000/svg" xmlns:xlink="http://www.w3.org/1999/xlink">
    <!-- Generator: Sketch 44.1 (41455) - http://www.bohemiancoding.com/sketch -->
    <title>Page 1</title>
    <desc>Created with Sketch.</desc>
    <defs></defs>
    <g id="Symbols" stroke="none" stroke-width="1" fill="none" fill-rule="evenodd">
        <g id="BLOCKS-/-Footer" transform="translate(-61.000000, -29.000000)">
            <g id="Page-1" transform="translate(61.000000, 29.000000)">
                <polygon id="Fill-1" fill="#662F8D" points="66.4885611 0 14.9889139 12.3497983 0 62.8494476 36.5114389 101 88.0117918 88.6502017 103 38.149851"></polygon>
                <g id="Group-14" transform="translate(15.000000, 20.000000)" fill="#FEFEFE">
                    <path d="M9.78889412,14.4463953 L3.46418824,15.0205814 L3.46418824,11.4575581 L11.9001882,10.4968605 L11.9001882,5.36267442 L2.39618824,6.74476744 L2.39618824,6.74616279 L0.0434823529,10.279186 L0.0434823529,10.2798837 L0.0434823529,16.3510465 L0.0434823529,16.3545349 L0.0456,16.3538372 L2.36865882,19.3594186 L2.36865882,19.369186 L8.56136471,18.9784884 L8.56136471,22.7236047 L0.0385411765,23.0598837 L0.0385411765,27.7496512 L9.78748235,27.6673256 L9.78748235,27.6666279 L12.4528941,24.1943023 L12.4528941,17.655 L12.4338353,17.6563953 L12.4536,17.652907 L9.78889412,14.4463953 Z M2.39618824,6.75662791 L2.39618824,6.93872093 C2.39548235,6.84593023 2.39548235,6.78104651 2.39618824,6.75662791 L2.39618824,6.75662791 Z" id="Fill-2"></path>
                    <path d="M25.9627059,3.28751163 L25.9627059,3.28472093 L14.0227059,5.02123256 L14.0227059,7.74216279 L14.0227059,10.2293721 L14.0227059,27.6321628 L19.0196471,27.5903023 L19.0196471,20.9016977 L25.9429412,20.571 L25.9436471,20.5835581 L29.1907059,16.6158837 L29.1956471,16.6158837 L29.1956471,6.61751163 L29.1723529,6.62030233 L29.1977647,6.6154186 L25.9627059,3.28751163 Z M19.0196471,9.66006977 L24.15,9.07611628 L24.15,15.0656512 L19.0196471,15.4744884 L19.0196471,9.66006977 Z" id="Fill-4"></path>
                    <path d="M49.8401647,15.1643721 L49.8465176,15.1636744 L49.8465176,3.99669767 L49.8175765,4.00018605 L49.8486353,3.99460465 L45.8215765,0.338093023 L45.8215765,0.335302326 L31.1046353,2.47716279 L31.1046353,5.48623256 L31.1046353,8.23646512 L31.1046353,27.483907 L37.2359294,27.4315814 L37.2359294,20.0104186 L40.3566353,19.8611163 L44.6074588,27.3694884 L51.9676941,27.3073953 L46.7999294,18.5125116 L49.8401647,15.1643721 Z M37.2359294,7.53809302 L43.5733412,6.816 L43.5733412,13.4836744 L37.2359294,13.9894884 L37.2359294,7.53809302 Z" id="Fill-6"></path>
                    <path d="M19.3994824,29.644186 L19.3994824,29.6413953 L7.56395294,29.5918605 L7.56395294,32.3218605 L7.56395294,34.8167442 L7.56395294,52.2774419 L12.5623059,52.832093 L12.5623059,46.1651163 L19.3804235,46.7127907 L19.3811294,46.7260465 L22.5364235,43.2293023 L22.5413647,43.2293023 L22.5413647,33.3948837 L22.5187765,33.394186 L22.5427765,33.3934884 L19.3994824,29.644186 Z M12.5623059,34.9611628 L17.6270118,35.1069767 L17.6270118,41.0372093 L12.5623059,40.7560465 L12.5623059,34.9611628 Z" id="Fill-8"></path>
                    <path d="M42.2258824,44.4891628 L42.2315294,44.4891628 L42.2315294,33.802186 L42.2054118,33.802186 L42.2336471,33.8007907 L38.5263529,29.7256744 L38.5263529,29.7228837 L24.6458824,29.6642791 L24.6458824,32.6140465 L24.6458824,35.3098605 L24.6458824,54.1763721 L30.4927059,54.8245116 L30.4927059,47.6077674 L33.4327059,47.8442791 L37.4004706,55.5912558 L44.1698824,56.3426512 L39.4305882,47.325907 L42.2258824,44.4891628 Z M30.4927059,35.4786977 L36.4390588,35.6496279 L36.4390588,42.082186 L30.4927059,41.752186 L30.4927059,35.4786977 Z" id="Fill-10"></path>
                    <polygon id="Fill-12" points="71.5977176 29.802907 62.8250118 29.7680233 52.1280706 42.1761628 52.1280706 29.7840698 45.6198353 29.7561628 45.6198353 56.539186 52.1280706 57.2612791 52.1280706 51.1922093 56.1988941 46.7201163 62.3323059 58.3831395 70.9963059 59.3445349 60.6657176 41.8133721"></polygon>
                </g>
            </g>
        </g>
    </g>
</svg>