<?xml version="1.0" encoding="UTF-8"?>
<svg id="Layer_1" data-name="Layer 1" xmlns="http://www.w3.org/2000/svg" viewBox="0 0 236.21 191.47">
  <defs>
    <style>
      .cls-1 {
        fill: #f5e5c1;
      }
    </style>
  </defs>
  <path class="cls-1" d="M36.33,107.22c4.91-11.4,17.97-20.43,28.11-25.44-6.39,5.21-12.19,9.91-15.79,16.84-3.39,6.51-1.72,13.42,4.54,17.37,4.66,2.94,10.01,4.31,15.61,5.3,6.9.56,13.68.58,20.73.06l6.82-33.01c-12.12,4.23-23.52,8.88-33.82,15.94l-5.33,3.65c16.4-20.45,78.36-39.54,103.57-44.99,10.4-2.25,30.88-5.75,38.35,3.35,2.84,3.46,2.43,8.37.6,12.36-6.68,14.55-30.53,27.93-44.69,34.71l-24.64,9.77-6.58,33.37h-41.52s5.01-25.16,5.01-25.16c-14.38.52-32.32,1.75-44.55-5.49-6.8-4.02-9.54-11.38-6.42-18.63ZM187.87,77.17c.45-4.25-1.95-7.15-5.67-8.78-4.28-1.15-8.66-1.18-13.27-.92-9.8,1.24-19.04,3.25-28.79,6.09l-8.31,41.14c15.13-4.27,54.33-21.39,56.03-37.53Z"/>
  <path class="cls-1" d="M191.71,52.96c-31.43.16-62.93,9.44-92.31,22.73l1.49-8.89-26.64-.02,6.31-31.82h95.06s-3.2,17.04-3.2,17.04c3.65-.25,7.79-.3,12.33.07,2.47.2,4.8.51,6.96.88Z"/>
</svg>