<svg xmlns="http://www.w3.org/2000/svg" xmlns:xlink="http://www.w3.org/1999/xlink" width="140" viewBox="0 0 104.88 30.000001" height="40" preserveAspectRatio="xMidYMid meet"><defs><clipPath id="cd13096552"><path d="M 1.632812 0 L 103.128906 0 L 103.128906 29.03125 L 1.632812 29.03125 Z M 1.632812 0 " clip-rule="nonzero"></path></clipPath><clipPath id="2608d638ba"><path d="M 2 3.0625 L 9.3125 3.0625 L 9.3125 12.765625 L 2 12.765625 Z M 2 3.0625 " clip-rule="nonzero"></path></clipPath><clipPath id="99ad1a8a5c"><path d="M 6.839844 3.21875 L 9.273438 3.21875 L 9.273438 12.476562 L 7.582031 12.476562 L 7.109375 11.453125 L 6.453125 12.445312 C 6.230469 12.519531 5.761719 12.675781 4.992188 12.675781 C 3.425781 12.675781 2.003906 11.765625 2.003906 8.992188 L 2.003906 3.21875 L 4.4375 3.21875 L 4.4375 9.476562 C 4.4375 10.429688 4.765625 10.871094 5.53125 10.871094 C 6.140625 10.871094 6.523438 10.753906 6.839844 10.625 Z M 6.839844 3.21875 " clip-rule="nonzero"></path></clipPath><clipPath id="8df4bf931e"><path d="M 11 3.0625 L 18.527344 3.0625 L 18.527344 12.515625 L 11 12.515625 Z M 11 3.0625 " clip-rule="nonzero"></path></clipPath><clipPath id="3f68d51698"><path d="M 14.359375 7.628906 C 15.269531 7.628906 15.640625 7.296875 15.640625 6.503906 L 15.640625 6.105469 C 15.640625 5.253906 15.226562 5.039062 14.332031 5.039062 L 13.464844 5.039062 L 13.464844 7.628906 Z M 17.105469 9.730469 L 18.515625 12.476562 L 16.011719 12.476562 L 14.390625 9.148438 L 13.464844 9.148438 L 13.464844 12.476562 L 11.03125 12.476562 L 11.03125 3.21875 L 14.460938 3.21875 C 16.789062 3.21875 18.199219 4.058594 18.199219 6.292969 C 18.199219 7.640625 17.613281 8.578125 15.96875 8.90625 Z M 17.105469 9.730469 " clip-rule="nonzero"></path></clipPath><clipPath id="29b318cebf"><path d="M 25.15625 3.21875 L 27.585938 3.21875 L 27.585938 6.804688 L 25.15625 6.804688 Z M 20.21875 3.21875 L 22.648438 3.21875 L 22.648438 6.804688 L 20.21875 6.804688 Z M 20.21875 6.804688 L 27.585938 6.804688 L 27.585938 8.710938 L 20.21875 8.710938 Z M 25.15625 8.710938 L 27.585938 8.710938 L 27.585938 12.476562 L 25.15625 12.476562 Z M 20.21875 8.710938 L 22.648438 8.710938 L 22.648438 12.476562 L 20.21875 12.476562 Z M 20.21875 8.710938 " clip-rule="nonzero"></path></clipPath><clipPath id="b7e35308a5"><path d="M 29.914062 3.21875 L 35.746094 3.21875 L 35.746094 5.152344 L 29.914062 5.152344 Z M 29.914062 5.152344 L 32.347656 5.152344 L 32.347656 6.933594 L 29.914062 6.933594 Z M 29.914062 6.933594 L 35.164062 6.933594 L 35.164062 8.738281 L 29.914062 8.738281 Z M 29.914062 8.738281 L 32.347656 8.738281 L 32.347656 10.617188 L 29.914062 10.617188 Z M 29.914062 10.617188 L 36.015625 10.617188 L 36.015625 12.476562 L 29.914062 12.476562 Z M 29.914062 10.617188 " clip-rule="nonzero"></path></clipPath><clipPath id="50e57056b6"><path d="M 38.117188 3.21875 L 40.550781 3.21875 L 40.550781 12.476562 L 38.117188 12.476562 Z M 38.117188 3.21875 " clip-rule="nonzero"></path></clipPath><clipPath id="b375c253b6"><path d="M 42.695312 3.21875 L 45.128906 3.21875 L 45.128906 10.617188 L 42.695312 10.617188 Z M 42.695312 10.617188 L 48.332031 10.617188 L 48.332031 12.476562 L 42.695312 12.476562 Z M 42.695312 10.617188 " clip-rule="nonzero"></path></clipPath><clipPath id="143d11d851"><path d="M 49.34375 3.0625 L 56.804688 3.0625 L 56.804688 12.765625 L 49.34375 12.765625 Z M 49.34375 3.0625 " clip-rule="nonzero"></path></clipPath><clipPath id="1e67955157"><path d="M 54.359375 3.21875 L 56.789062 3.21875 L 56.789062 12.476562 L 55.09375 12.476562 L 54.625 11.453125 L 53.972656 12.445312 C 53.746094 12.519531 53.273438 12.675781 52.507812 12.675781 C 50.945312 12.675781 49.523438 11.765625 49.523438 8.992188 L 49.523438 3.21875 L 51.953125 3.21875 L 51.953125 9.476562 C 51.953125 10.429688 52.28125 10.871094 53.046875 10.871094 C 53.660156 10.871094 54.042969 10.753906 54.355469 10.625 Z M 54.359375 3.21875 " clip-rule="nonzero"></path></clipPath><clipPath id="25c4166f78"><path d="M 63.488281 3.21875 L 65.917969 3.21875 L 65.917969 6.804688 L 63.488281 6.804688 Z M 58.550781 3.21875 L 60.984375 3.21875 L 60.984375 6.804688 L 58.550781 6.804688 Z M 58.550781 6.804688 L 65.917969 6.804688 L 65.917969 8.710938 L 58.550781 8.710938 Z M 63.488281 8.710938 L 65.917969 8.710938 L 65.917969 12.476562 L 63.488281 12.476562 Z M 58.550781 8.710938 L 60.984375 8.710938 L 60.984375 12.476562 L 58.550781 12.476562 Z M 58.550781 8.710938 " clip-rule="nonzero"></path></clipPath><clipPath id="34006b0761"><path d="M 67.300781 3.0625 L 75.703125 3.0625 L 75.703125 12.515625 L 67.300781 12.515625 Z M 67.300781 3.0625 " clip-rule="nonzero"></path></clipPath><clipPath id="487df5c4e6"><path d="M 71.691406 7.386719 L 71.394531 5.769531 L 71.050781 7.386719 L 70.375 9.664062 L 72.347656 9.664062 Z M 69.515625 12.476562 L 67.441406 12.476562 L 70.511719 3.21875 L 72.671875 3.21875 L 75.65625 12.476562 L 73.140625 12.476562 L 72.789062 11.199219 L 69.898438 11.199219 Z M 69.515625 12.476562 " clip-rule="nonzero"></path></clipPath><clipPath id="4893589de6"><path d="M 77.179688 3.21875 L 79.609375 3.21875 L 79.609375 10.617188 L 77.179688 10.617188 Z M 77.179688 10.617188 L 82.8125 10.617188 L 82.8125 12.476562 L 77.179688 12.476562 Z M 77.179688 10.617188 " clip-rule="nonzero"></path></clipPath><clipPath id="79613bd325"><path d="M 84.617188 3.21875 L 87.046875 3.21875 L 87.046875 10.617188 L 84.617188 10.617188 Z M 84.617188 10.617188 L 90.246094 10.617188 L 90.246094 12.476562 L 84.617188 12.476562 Z M 84.617188 10.617188 " clip-rule="nonzero"></path></clipPath><clipPath id="6f274eb9d1"><path d="M 91.867188 3.21875 L 94.300781 3.21875 L 94.300781 12.476562 L 91.867188 12.476562 Z M 91.867188 3.21875 " clip-rule="nonzero"></path></clipPath><clipPath id="88e6780b57"><path d="M 95.863281 3.21875 L 102.789062 3.21875 L 102.789062 5.152344 L 95.863281 5.152344 Z M 98.105469 5.152344 L 100.539062 5.152344 L 100.539062 12.476562 L 98.105469 12.476562 Z M 98.105469 5.152344 " clip-rule="nonzero"></path></clipPath><clipPath id="c6f6c22a3d"><path d="M 2.003906 14.691406 L 102.789062 14.691406 L 102.789062 18.613281 L 2.003906 18.613281 Z M 2.003906 14.691406 " clip-rule="nonzero"></path></clipPath><clipPath id="e7dc226ce6"><path d="M 2.003906 20.675781 L 102.789062 20.675781 L 102.789062 24.597656 L 2.003906 24.597656 Z M 2.003906 20.675781 " clip-rule="nonzero"></path></clipPath></defs><g clip-path="url(#cd13096552)"><rect x="-10.488" width="125.856" fill="#ffffff" y="-3" height="36.000001" fill-opacity="1"></rect><rect x="-10.488" width="125.856" fill="#ffffff" y="-3" height="36.000001" fill-opacity="1"></rect><rect x="-10.488" width="125.856" fill="#ffffff" y="-3" height="36.000001" fill-opacity="1"></rect></g><g clip-path="url(#2608d638ba)"><g clip-path="url(#99ad1a8a5c)"><rect x="-10.488" width="125.856" fill="#004f91" y="-3" height="36.000001" fill-opacity="1"></rect></g></g><g clip-path="url(#8df4bf931e)"><g clip-path="url(#3f68d51698)"><rect x="-10.488" width="125.856" fill="#004f91" y="-3" height="36.000001" fill-opacity="1"></rect></g></g><g clip-path="url(#29b318cebf)"><rect x="-10.488" width="125.856" fill="#004f91" y="-3" height="36.000001" fill-opacity="1"></rect></g><g clip-path="url(#b7e35308a5)"><rect x="-10.488" width="125.856" fill="#004f91" y="-3" height="36.000001" fill-opacity="1"></rect></g><g clip-path="url(#50e57056b6)"><rect x="-10.488" width="125.856" fill="#004f91" y="-3" height="36.000001" fill-opacity="1"></rect></g><g clip-path="url(#b375c253b6)"><rect x="-10.488" width="125.856" fill="#004f91" y="-3" height="36.000001" fill-opacity="1"></rect></g><g clip-path="url(#143d11d851)"><g clip-path="url(#1e67955157)"><rect x="-10.488" width="125.856" fill="#004f91" y="-3" height="36.000001" fill-opacity="1"></rect></g></g><g clip-path="url(#25c4166f78)"><rect x="-10.488" width="125.856" fill="#004f91" y="-3" height="36.000001" fill-opacity="1"></rect></g><g clip-path="url(#34006b0761)"><g clip-path="url(#487df5c4e6)"><rect x="-10.488" width="125.856" fill="#004f91" y="-3" height="36.000001" fill-opacity="1"></rect></g></g><g clip-path="url(#4893589de6)"><rect x="-10.488" width="125.856" fill="#004f91" y="-3" height="36.000001" fill-opacity="1"></rect></g><g clip-path="url(#79613bd325)"><rect x="-10.488" width="125.856" fill="#004f91" y="-3" height="36.000001" fill-opacity="1"></rect></g><g clip-path="url(#6f274eb9d1)"><rect x="-10.488" width="125.856" fill="#004f91" y="-3" height="36.000001" fill-opacity="1"></rect></g><g clip-path="url(#88e6780b57)"><rect x="-10.488" width="125.856" fill="#004f91" y="-3" height="36.000001" fill-opacity="1"></rect></g><g clip-path="url(#c6f6c22a3d)"><rect x="-10.488" width="125.856" fill="#004f91" y="-3" height="36.000001" fill-opacity="1"></rect></g><g clip-path="url(#e7dc226ce6)"><rect x="-10.488" width="125.856" fill="#e30614" y="-3" height="36.000001" fill-opacity="1"></rect></g></svg>