<svg viewBox="0 0 92 28" xmlns="http://www.w3.org/2000/svg"><path d="m7.3 14.42.7 2.05 2.96-9.1c.08-.24.3-.4.56-.4h4.18l-5.86 15.7c-1.43 3.92-3.32 5.26-6.6 5.26-.7 0-1.1-.04-1.44-.1a.6.6 0 0 1-.48-.5L.8 24c.5.14 1.03.22 1.87.22 1.2 0 2.17-.4 2.76-1.6l.17-.35L.04 8.04a.59.59 0 0 1 .48-.8l4.18-.5 2.6 7.68zm17.4-4c-2.03 0-3.15 1.67-3.15 4.18 0 2.48 1.15 4.2 3.16 4.2 2.07 0 3.2-1.66 3.2-4.17 0-2.5-1.16-4.2-3.2-4.2l-.01-.01zm-.01 12.13c-4.4 0-7.62-3-7.62-7.92 0-4.9 3.24-7.98 7.65-7.98 4.44 0 7.68 3.04 7.68 7.95 0 4.9-3.3 7.95-7.7 7.95h-.01zm17.18-13.1c-1.53 0-2.43 1.14-2.43 2.62 0 1.45.9 2.48 2.43 2.48 1.6 0 2.5-1.1 2.5-2.57 0-1.45-.96-2.54-2.5-2.54v.01zM38.98 21.9c-.76.65-1.06 1.2-1.06 1.8 0 1.05 1.3 1.8 4.24 1.8 2.65 0 4.2-.8 4.2-1.8 0-.76-.63-1.07-2.44-1.26l-2.32-.2c-1.23-.1-1.76-.2-2.62-.33v-.01zm2.82 6.04c-4.47 0-7.7-1.3-7.7-3.65 0-1.37.86-2.37 2.67-3.32a2.23 2.23 0 0 1-.83-1.7c0-.95.78-1.87 2.3-2.7-1.97-.87-3.1-2.43-3.1-4.44 0-3.32 2.9-5.4 6.68-5.4 2 0 3.6.55 4.83 1.47l3.04-.68a.6.6 0 0 1 .7.48l.4 2.6-2.56-.26c.2.53.3 1.08.3 1.6 0 3.33-3 5.28-6.58 5.28-.5 0-.97-.02-1.42-.08-.33.28-.5.53-.5.73 0 .44.42.55 2.68.8l2.7.2c3.24.3 5.22 1.28 5.22 3.6 0 3.34-3.82 5.46-8.84 5.46l.01.01zm19.85-13.17c-3.74.5-4.75 1.6-4.75 2.93 0 1 .68 1.53 1.72 1.53 1.06 0 2.06-.42 3.04-1.2v-3.26h-.01zm.56 7.47-.34-1.92a7.07 7.07 0 0 1-5.13 2.23c-2.6 0-4.44-1.48-4.44-4.24 0-3.6 2.97-5.26 9.33-5.8v-.3c0-1.36-.84-1.95-2.54-1.95-1.56 0-3.07.34-4.55.88a.6.6 0 0 1-.8-.46l-.44-2.8c1.86-.7 3.9-1.16 6.5-1.16 4.34 0 6.5 1.4 6.5 5.28v9.67a.6.6 0 0 1-.6.6h-3.48l-.01-.03zm24.57-7.47c-3.75.5-4.75 1.6-4.75 2.93 0 1 .67 1.53 1.7 1.53 1.06 0 2.07-.42 3.04-1.2v-3.26h.01zm.55 7.47L87 20.32a7.08 7.08 0 0 1-5.14 2.23c-2.6 0-4.44-1.48-4.44-4.24 0-3.6 2.96-5.26 9.33-5.8v-.3c0-1.36-.84-1.95-2.54-1.95-1.55 0-3.06.34-4.55.88a.6.6 0 0 1-.8-.46l-.43-2.8a17.6 17.6 0 0 1 6.47-1.16c4.36 0 6.5 1.4 6.5 5.28v9.67a.6.6 0 0 1-.6.6h-3.47v-.03zm-17.15 0h4.5V6.7l-3.97.5a.57.57 0 0 0-.53.57v14.47zm1.9-17.2c-1.48 0-2.7-1-2.7-2.5C69.4 1 70.62 0 72.1 0c1.5 0 2.68 1 2.68 2.54 0 1.5-1.17 2.5-2.68 2.5h-.02z" fill="#494080"/></svg>